<?xml version="1.0" encoding="UTF-8"?>
<svg width="62px" height="62px" viewBox="0 0 62 62" version="1.1" xmlns="http://www.w3.org/2000/svg" xmlns:xlink="http://www.w3.org/1999/xlink">
    <!-- Generator: Sketch 46.2 (44496) - http://www.bohemiancoding.com/sketch -->
    <title>homepage_icon_1</title>
    <desc>Created with Sketch.</desc>
    <defs></defs>
    <g id="Page-1" stroke="none" stroke-width="1" fill="none" fill-rule="evenodd">
        <g id="大数据官网" transform="translate(-189.000000, -1755.000000)" stroke="#FFFFFF" stroke-width="2">
            <g id="Group-12" transform="translate(0.000000, 1620.000000)">
                <g id="homepage_icon_1" transform="translate(190.000000, 136.000000)">
                    <ellipse id="Oval-9" stroke-dasharray="2,2" cx="29.8510638" cy="30" rx="29.8510638" ry="30"></ellipse>
                    <g id="Group-4-Copy-5" transform="translate(10.000000, 16.000000)">
                        <path d="M25,8 L21.4261363,16.7952958 L21.4261363,16.7952958 C21.1301871,17.5236281 20.4224219,18 19.6362579,18 L16,18" id="Path-46" stroke-linecap="round" stroke-linejoin="round"></path>
                        <path d="M7.87878788,27 C3.52745349,27 0,23.418278 0,19 C0,14.581722 3.52745349,11 7.87878788,11 C12.2301223,11 15.7575758,14.581722 15.7575758,19 C15.7575758,23.418278 12.2301223,27 7.87878788,27 Z M32.1212121,27 C27.7698777,27 24.2424242,23.418278 24.2424242,19 C24.2424242,14.581722 27.7698777,11 32.1212121,11 C36.4725465,11 40,14.581722 40,19 C40,23.418278 36.4725465,27 32.1212121,27 Z" id="Combined-Shape"></path>
                        <path d="M20,0 L15.6415815,0 L15.6415815,4.4408921e-16 C14.6792668,6.20863549e-16 13.8277809,0.623247458 13.5368816,1.54054083 L8,19" id="Path-43" stroke-linecap="round" stroke-linejoin="round"></path>
                        <path d="M32,19 L26,8" id="Path-2" stroke-linecap="round" stroke-linejoin="round"></path>
                        <path d="M12,7.5 L17.720178,7.5 M23.0259239,7.5 L29,7.5" id="Path-45" stroke-linecap="round" stroke-linejoin="round"></path>
                    </g>
                </g>
            </g>
        </g>
    </g>
</svg>