<?xml version="1.0" encoding="UTF-8"?>
<svg width="62px" height="62px" viewBox="0 0 62 62" version="1.1" xmlns="http://www.w3.org/2000/svg" xmlns:xlink="http://www.w3.org/1999/xlink">
    <!-- Generator: Sketch 46.2 (44496) - http://www.bohemiancoding.com/sketch -->
    <title>homepage_icon_4</title>
    <desc>Created with Sketch.</desc>
    <defs></defs>
    <g id="Page-1" stroke="none" stroke-width="1" fill="none" fill-rule="evenodd">
        <g id="大数据官网" transform="translate(-939.000000, -1755.000000)">
            <g id="Group-12" transform="translate(0.000000, 1620.000000)">
                <g id="homepage_icon_4" transform="translate(940.000000, 136.000000)">
                    <ellipse id="Oval-9" stroke="#FFFFFF" stroke-width="2" stroke-dasharray="2,2" cx="29.8510638" cy="30" rx="29.8510638" ry="30"></ellipse>
                    <path d="M42.6528647,17.7288208 C42.4560568,17.8403036 35.1614423,21.2977062 30.4773589,14.0809267 C30.3978652,13.9730244 29.6631803,13.9730244 29.5407815,14.0809267 C24.9003693,21.2977062 17.5287683,17.8403036 17.3652756,17.7288208 C17.0124205,17.847758 16.6005518,18.1854418 16.4286982,18.6407943 C16.4894681,21.057308 12.1943032,43.3462321 29.5407815,46 C29.6723133,46 30.3188304,46 30.4773589,46 C47.8624947,43.4266177 43.4689207,18.6930856 43.5894421,18.6407943 C43.4168263,18.1392246 42.9409948,17.847758 42.6528647,17.7288208 Z" id="Fill-1-Copy" stroke="#FFFFFF" stroke-width="2"></path>
                    <path d="M31.1875,30.4666667 L32.5,23 L25,31.5333333 L28.8125,31.5333333 L27.5,39 L35,30.4666667 L31.1875,30.4666667 Z" id="Combined-Shape-Copy" fill="#FFFFFF"></path>
                </g>
            </g>
        </g>
    </g>
</svg>