<?xml version="1.0" encoding="UTF-8"?>
<svg width="131px" height="46px" viewBox="0 0 131 46" version="1.1" xmlns="http://www.w3.org/2000/svg" xmlns:xlink="http://www.w3.org/1999/xlink">
    <!-- Generator: Sketch 46.2 (44496) - http://www.bohemiancoding.com/sketch -->
    <title>logo-slogan</title>
    <desc>Created with Sketch.</desc>
    <defs>
        <linearGradient x1="100%" y1="100%" x2="0%" y2="0%" id="linearGradient-1">
            <stop stop-color="#F2B912" offset="0%"></stop>
            <stop stop-color="#FBD805" offset="27.2396919%"></stop>
            <stop stop-color="#FFE700" offset="56.4811862%"></stop>
            <stop stop-color="#FCE934" offset="82.7327806%"></stop>
            <stop stop-color="#FCEC61" offset="100%"></stop>
        </linearGradient>
    </defs>
    <g id="Page-1" stroke="none" stroke-width="1" fill="none" fill-rule="evenodd">
        <g id="大数据官网" transform="translate(-655.000000, -2377.000000)">
            <g id="Group-16" transform="translate(0.000000, 2337.000000)">
                <g id="logo-slogan" transform="translate(655.000000, 40.000000)">
                    <path d="M7.10542736e-15,17.1105397 C7.10542736e-15,22.512254 4.45325989,26.9063492 9.92713559,26.9063492 L9.92713559,26.9063492 C15.4032316,26.9063492 19.8572316,22.512254 19.8572316,17.1105397 L19.8572316,17.1105397 C19.8572316,11.7102857 15.4032316,7.31546032 9.92713559,7.31546032 L9.92713559,7.31546032 C4.45325989,7.31546032 7.10542736e-15,11.7102857 7.10542736e-15,17.1105397 M3.4400452,17.1105397 C3.4400452,13.5809524 6.35016949,10.7099683 9.92713559,10.7099683 C13.5055819,10.7099683 16.4164463,13.5809524 16.4164463,17.1105397 C16.4164463,20.640127 13.5055819,23.5125714 9.92713559,23.5125714 C6.35016949,23.5125714 3.4400452,20.640127 3.4400452,17.1105397 Z M32.6426836,0 L32.704113,0 C33.6366554,0.0175238095 34.3849096,0.769587302 34.3849096,1.69615873 C34.3849096,2.62711111 33.6307345,3.38136508 32.6930113,3.39231746 L32.6722881,3.39231746 L32.6530452,3.39231746 L30.2143729,3.39231746 C28.6046271,3.39231746 27.2961073,4.68615873 27.2961073,6.27352381 C27.2961073,6.29177778 27.2961073,6.31003175 27.2931469,6.32828571 L27.2931469,7.31326984 L32.6404633,7.31326984 L32.7181751,7.31326984 C33.6462768,7.33298413 34.3923107,8.08431746 34.3923107,9.00869841 C34.3923107,9.93307937 33.6455367,10.6829524 32.717435,10.7048571 L32.6981921,10.7048571 L32.6604463,10.7048571 L32.6426836,10.7048571 L27.2931469,10.7048571 L27.2931469,17.8260952 L27.2931469,17.8319365 L27.2931469,17.8377778 L27.2931469,25.1517778 L27.2931469,25.2101905 L27.2931469,25.2686032 C27.2628023,26.1776508 26.5041864,26.9041587 25.5746045,26.9041587 C24.6250395,26.9041587 23.8560621,26.146254 23.8560621,25.2101905 L23.8560621,14.444 L23.8560621,8.58520635 L23.8560621,6.27352381 C23.8560621,2.81330159 26.7099379,0 30.2143729,0 L32.6426836,0 Z M34.3849096,17.1105397 C34.3849096,22.512254 38.8381695,26.9063492 44.3127853,26.9063492 L44.3127853,26.9063492 C49.7881412,26.9063492 54.2421412,22.512254 54.2421412,17.1105397 L54.2421412,17.1105397 C54.2421412,11.7102857 49.7881412,7.31546032 44.3127853,7.31546032 L44.3127853,7.31546032 C38.8381695,7.31546032 34.3849096,11.7102857 34.3849096,17.1105397 M37.8249548,17.1105397 C37.8249548,13.5809524 40.7358192,10.7099683 44.3127853,10.7099683 L44.3127853,10.7099683 C47.8897514,10.7099683 50.802096,13.5809524 50.802096,17.1105397 L50.802096,17.1105397 C50.802096,20.640127 47.8897514,23.5125714 44.3127853,23.5125714 L44.3127853,23.5125714 C40.7358192,23.5125714 37.8249548,20.640127 37.8249548,17.1105397" id="Fill-8" fill="url(#linearGradient-1)"></path>
                    <g id="Group-33" transform="translate(0.000000, 6.571429)">
                        <path d="M129.475367,14.8149937 C129.960881,14.8149937 130.353881,15.1946762 130.353881,15.676581 C130.353881,16.1555651 129.960881,16.5308667 129.475367,16.5308667 L121.274915,16.5308667 L121.274915,19.1886444 C121.274915,19.6676286 120.880435,20.056073 120.394921,20.056073 C119.909407,20.056073 119.517147,19.6676286 119.517147,19.1886444 L119.517147,16.5308667 L110.729785,16.5308667 C110.247232,16.5308667 109.849791,16.1555651 109.849791,15.676581 C109.849791,15.1946762 110.247232,14.8149937 110.729785,14.8149937 L119.517147,14.8149937 L119.517147,11.3022 L112.739192,11.3022 C112.449808,11.3022 112.175966,11.2671524 111.924328,11.1612794 C111.188655,10.8487714 110.675017,10.0762635 110.675017,9.23585079 C110.675017,9.10369206 110.687599,8.97372381 110.712763,8.84521587 C110.717944,8.82404127 110.722384,8.80286667 110.727565,8.7809619 C110.766051,8.61886667 110.816379,8.45458095 110.881508,8.29029524 L112.141181,4.65264444 L110.538096,4.65264444 L110.535136,4.65264444 C110.058503,4.65264444 109.669944,4.2729619 109.669944,3.79397778 C109.669944,3.32667619 110.058503,2.9426127 110.535136,2.9426127 L110.538096,2.9426127 L112.866492,2.9426127 L113.476345,1.46258095 L113.64065,1.07194603 C113.64065,1.07194603 113.668034,1.0106127 113.715401,0.92372381 C113.735384,0.887946032 113.759808,0.847787302 113.785712,0.806168254 C113.937435,0.598073016 114.185373,0.461533333 114.465136,0.461533333 C114.926966,0.461533333 115.302203,0.830993651 115.302203,1.28734286 C115.302203,1.38007302 115.284441,1.4669619 115.257056,1.55093016 L115.254836,1.55385079 L115.203028,1.67213651 L114.661266,2.9426127 L129.284418,2.9426127 C129.764751,2.9426127 130.151831,3.32667619 130.151831,3.79397778 C130.151831,4.2729619 129.764751,4.65264444 129.284418,4.65264444 L113.938915,4.65264444 L113.049299,7.22499365 L112.811723,7.90988254 C112.607452,8.41880317 112.519379,8.66851746 112.483113,8.8057873 C112.477932,8.82258095 112.472751,8.84083492 112.469051,8.85981905 C112.46461,8.89267619 112.459429,8.92407302 112.459429,8.95839048 C112.459429,9.03359683 112.474972,9.1066127 112.500876,9.17159683 C112.588209,9.38699365 112.799881,9.59289841 113.048559,9.59289841 L119.517147,9.59289841 L119.517147,6.60800952 L119.517147,6.60508889 C119.517147,6.12756508 119.909407,5.73912063 120.394921,5.73912063 C120.880435,5.73912063 121.274915,6.12756508 121.274915,6.60508889 L121.274915,6.60800952 L121.274915,9.59289841 L128.412565,9.59289841 C128.897339,9.59289841 129.291819,9.9806127 129.291819,10.4595968 C129.291819,10.9371206 128.897339,11.3022 128.412565,11.3022 L121.274915,11.3022 L121.274915,14.8149937 L129.475367,14.8149937 Z" id="Fill-10" fill="#FEFEFE"></path>
                        <path d="M90.9458249,5.7375873 L100.459977,5.7375873 L100.459977,3.7968254 L90.9458249,3.7968254 L90.9458249,5.7375873 Z M103.176192,10.4208254 C103.498881,10.4208254 103.769023,10.6449841 103.838593,10.9428889 C103.862277,11.0115238 103.857836,11.7628571 103.857836,11.7628571 L96.553661,11.7628571 L96.553661,10.4208254 L103.176192,10.4208254 Z M103.833412,14.3213333 C103.75274,14.6068254 103.49,14.8222222 103.176192,14.8222222 L96.553661,14.8222222 L96.553661,13.4699683 L103.868938,13.4699683 L103.868938,14.0132063 C103.868938,14.0533651 103.860797,14.2205714 103.833412,14.3213333 L103.833412,14.3213333 Z M94.8203164,11.7628571 L87.5279831,11.7628571 C87.5279831,11.7628571 87.5272429,11.0575238 87.5279831,11.04 C87.5487062,10.7749524 87.7278136,10.5551746 87.9676102,10.4653651 C88.0423616,10.4383492 88.123774,10.4208254 88.2081469,10.4208254 L94.8203164,10.4208254 L94.8203164,11.7628571 Z M94.8203164,14.8222222 L88.2081469,14.8222222 C87.8336497,14.8222222 87.5279831,14.5155556 87.5279831,14.1460952 L87.5279831,13.4699683 L94.8203164,13.4699683 L94.8203164,14.8222222 Z M105.183379,3.7968254 C105.64965,3.7844127 106.023407,3.40911111 106.024887,2.94546032 L106.024887,2.93961905 C106.023407,2.47231746 105.642249,2.09263492 105.170797,2.08533333 L102.195542,2.08533333 L102.195542,1.31720635 C102.195542,1.03463492 102.055661,0.784920635 101.842508,0.629396825 C101.698186,0.524253968 101.520559,0.46 101.32739,0.46 C101.13348,0.46 100.955853,0.524253968 100.810791,0.629396825 C100.601339,0.782 100.464418,1.02587302 100.459977,1.30406349 L100.459977,1.33107937 L100.459977,2.08533333 L90.9458249,2.08533333 L90.9458249,1.34422222 L90.9458249,1.32377778 C90.9436045,1.03755556 90.8000226,0.786380952 90.5831695,0.629396825 C90.4373672,0.522793651 90.2575198,0.46 90.0621299,0.46 C89.8674802,0.46 89.6876328,0.522793651 89.5410904,0.629396825 C89.3279379,0.782 89.1865763,1.02733333 89.1776949,1.30698413 L89.1776949,2.08533333 L86.2031808,2.08533333 C85.7295085,2.09263492 85.3483503,2.47377778 85.3483503,2.94253968 C85.3483503,3.40619048 85.7228475,3.7844127 86.191339,3.7968254 L89.1776949,3.7968254 L89.1776949,5.7375873 L86.2446271,5.7375873 L86.1898588,5.7375873 C85.7228475,5.75219048 85.3483503,6.12895238 85.3483503,6.59187302 C85.3483503,7.0628254 85.7324689,7.44469841 86.2083616,7.44907937 L86.2268644,7.44907937 L94.8203164,7.44907937 L94.8203164,8.70860317 L88.1607797,8.70860317 C86.8907458,8.73415873 85.8605085,9.72206349 85.7938983,10.9647937 L85.7938983,14.2687619 C85.857548,15.5136825 86.8900056,16.5059683 88.1622599,16.5293333 L103.250203,16.5293333 C104.525418,16.4906349 105.552695,15.4793651 105.591181,14.2205714 L105.591181,11.0188254 C105.552695,9.75638095 104.521718,8.74292063 103.242062,8.70860317 L96.553661,8.70860317 L96.553661,7.44907937 L105.148593,7.44907937 L105.166356,7.44907937 C105.640768,7.44469841 106.023407,7.06428571 106.024887,6.59625397 L106.024887,6.58895238 C106.023407,6.12749206 105.65113,5.75219048 105.184119,5.7375873 L105.12935,5.7375873 L102.195542,5.7375873 L102.195542,3.7968254 L105.183379,3.7968254 Z" id="Fill-12" fill="#FEFEFE"></path>
                        <path d="M90.075896,17.1123651 C89.9626588,17.1123651 89.8553424,17.135 89.7561672,17.1736984 C89.7332237,17.1839206 89.7080599,17.1934127 89.6865966,17.2050952 C89.5903819,17.2467143 89.4956475,17.2876032 89.4001729,17.3263016 C89.0523198,17.4730635 88.6963254,17.613254 88.3440316,17.7366508 C87.9747153,17.8636984 87.5928169,17.9805238 87.2101785,18.0863968 C86.8379017,18.1893492 86.4426814,18.2886508 86.0370994,18.3857619 C86.027478,18.3872222 86.0163763,18.3901429 86.0074949,18.3930635 C85.6300373,18.4814127 85.3480542,18.8150952 85.3480542,19.2144921 C85.3480542,19.6810635 85.7321729,20.0570952 86.204365,20.0570952 C86.2628339,20.0570952 86.3213028,20.0527143 86.3768113,20.0403016 L86.3782915,20.0403016 C87.2716079,19.8416984 88.1256983,19.6109683 88.9213198,19.3539524 C89.3128395,19.2261746 89.7080599,19.0757619 90.0980994,18.9092857 C90.1950542,18.8662063 90.2927492,18.8238571 90.3911842,18.7807778 C90.4259695,18.7683651 90.4600147,18.7537619 90.4910994,18.7369683 C90.7656814,18.5923968 90.9521898,18.3061746 90.9521898,17.976873 C90.9521898,17.498619 90.5599299,17.1123651 90.075896,17.1123651" id="Fill-14" fill="#FEFEFE"></path>
                        <path d="M105.568385,18.4372381 L105.565425,18.4372381 C105.551363,18.4284762 105.5336,18.4219048 105.517318,18.4131429 C105.501035,18.4073016 105.484753,18.4 105.46847,18.3926984 C105.463289,18.3905079 105.458849,18.3875873 105.452928,18.386127 L105.446267,18.3832063 L105.425544,18.3773651 L105.395199,18.3686032 L101.40599,17.1550794 L101.365284,17.1426667 C101.291272,17.1222222 101.21208,17.1098095 101.129188,17.1098095 C100.651815,17.1098095 100.264736,17.4916825 100.264736,17.9640952 C100.264736,18.340127 100.513414,18.6628571 100.859046,18.7738413 L100.88495,18.7826032 L104.917826,20.0319048 L104.94521,20.0384762 C104.981476,20.0457778 105.019962,20.0501587 105.056967,20.0530794 C105.088052,20.056 105.119137,20.0574603 105.150962,20.0574603 C105.188707,20.0574603 105.227193,20.0545397 105.264199,20.0501587 C105.693464,19.9946667 106.025035,19.6339683 106.025035,19.1944127 C106.025035,18.8694921 105.840007,18.584 105.568385,18.4372381" id="Fill-15" fill="#FEFEFE"></path>
                        <path d="M67.2516254,20.0572413 L67.2516254,20.0302254 C67.2516254,20.0360667 67.2508853,20.0404476 67.2508853,20.0440984 C67.2508853,20.0484794 67.2516254,20.0528603 67.2516254,20.0572413" id="Fill-16" fill="#FEFEFE"></path>
                        <path d="M72.5184175,1.30705714 C72.5147169,1.1113746 72.4458864,0.931755556 72.3326492,0.789374603 C72.1735249,0.59004127 71.9270672,0.460073016 71.650265,0.460073016 C71.3771633,0.460073016 71.132926,0.587120635 70.9745418,0.782073016 C70.8568638,0.926644444 70.785813,1.10918413 70.7835927,1.30851746 C70.7835927,1.3114381 70.7828525,1.31435873 70.7828525,1.31727937 C70.7828525,1.3202 70.7835927,1.32239048 70.7835927,1.32531111 L70.7835927,17.4588984 C70.7835927,17.9495651 70.3787508,18.3475016 69.8813949,18.3475016 C69.7985023,18.3475016 68.1288073,18.3460413 68.1288073,18.3460413 L68.1088243,18.3460413 C67.8756887,18.3489619 67.6647565,18.4431524 67.5100729,18.5913746 C67.3546492,18.7439778 67.255474,18.9549937 67.2510333,19.1886444 L67.2510333,19.2156603 C67.2584345,19.6778508 67.6366322,20.0516921 68.106604,20.0575333 L69.8813949,20.0575333 C71.3379373,20.0575333 72.5184175,18.8936603 72.5184175,17.4588984 L72.5184175,1.32677143 L72.5184175,1.31727937 L72.5184175,1.30705714 Z" id="Fill-17" fill="#FEFEFE"></path>
                        <path d="M81.874704,15.4923619 L81.8502802,15.4127746 L78.5456757,4.45309206 L78.5190316,4.36328254 C78.3991333,4.03398095 78.0808847,3.79667937 77.7063876,3.79667937 C77.2297548,3.79667937 76.8426757,4.17928254 76.8426757,4.64950476 C76.8426757,4.7196 76.8522972,4.7867746 76.8678395,4.85102857 L76.8937435,4.93791746 L80.2161107,15.8545206 L80.263478,16.0100444 C80.3907774,16.3152508 80.6942237,16.5306476 81.0502181,16.5306476 C81.5194497,16.5306476 81.9006079,16.155346 81.9006079,15.6916952 C81.9006079,15.6237905 81.8902463,15.5566159 81.874704,15.4923619" id="Fill-18" fill="#FEFEFE"></path>
                        <path d="M65.3630791,3.79697143 C64.9323333,3.79697143 64.5755989,4.10655873 64.5060282,4.51179683 C64.5030678,4.53735238 64.4993672,4.56436825 64.4956667,4.59138413 C64.2240452,6.65919365 63.8169831,8.58170159 63.2811412,10.3129079 C62.7475198,12.0411937 62.1206441,13.7008444 61.4167966,15.2568127 C61.3916328,15.3123048 61.3657288,15.3699873 61.340565,15.4254794 C61.3131808,15.5079873 61.2991186,15.5948762 61.2991186,15.6832254 C61.2991186,16.1512571 61.6824972,16.5302095 62.1561695,16.5302095 C62.4766384,16.5302095 62.7549209,16.3578921 62.9029435,16.1016063 C62.9221864,16.058527 62.9421695,16.0169079 62.9621525,15.9730984 C63.7133672,14.3360825 64.3742881,12.594654 64.9278927,10.7918921 C65.4807571,8.99497143 65.9122429,6.99287619 66.2134689,4.83817778 C66.2193898,4.79801905 66.2245706,4.7564 66.2304915,4.71551111 C66.2319718,4.69652698 66.2341921,4.6768127 66.2341921,4.65709841 C66.2341921,4.1832254 65.8434124,3.79697143 65.3630791,3.79697143" id="Fill-19" fill="#FEFEFE"></path>
                        <polygon id="Fill-20" fill="#F7DE0A" points="0.165045198 28.8434603 130.336859 28.8434603 130.336859 28.2973016 0.165045198 28.2973016"></polygon>
                        <path d="M5.83024011,37.245981 L6.62216102,37.245981 C6.70875424,37.6366159 6.8375339,37.9264889 7.00701977,38.1126794 C7.16096328,38.2798857 7.39409887,38.4127746 7.70864689,38.5106159 L7.70864689,39.2969968 C7.19722881,39.2086476 6.78276554,38.9969016 6.46525706,38.6602984 C6.26616667,38.4522032 6.11148305,38.1886159 6.00194633,37.8731873 C5.95605932,37.7366476 5.89907062,37.5285524 5.83024011,37.245981 L5.83024011,37.245981 Z M2.12079379,35.9594413 L5.65261299,35.9594413 L5.65261299,33.9332508 L2.12079379,33.9332508 L2.12079379,35.9594413 Z M0.204641243,36.7224571 L0.204641243,35.9594413 L1.36143785,35.9594413 L1.36143785,33.9332508 L0.204641243,33.9332508 L0.204641243,33.1746159 L1.36143785,33.1746159 L1.36143785,32.1735683 L2.12079379,32.1735683 L2.12079379,33.1746159 L5.65335311,33.1746159 L5.65335311,32.1735683 L6.40826836,32.1735683 L6.40826836,33.1746159 L7.76193503,33.1746159 L7.76193503,33.9332508 L6.40826836,33.9332508 L6.40826836,35.9594413 L7.76193503,35.9594413 L7.76193503,36.7224571 L0.204641243,36.7224571 Z M0.163935028,39.2940762 L0.163935028,38.5106159 C0.491805085,38.4069333 0.733081921,38.2696635 0.885545198,38.0958857 C1.04762994,37.9118857 1.17122881,37.627854 1.25856215,37.245981 L2.04678249,37.245981 C1.94834746,37.6621714 1.85435311,37.9644571 1.76405932,38.1542984 C1.58791243,38.5179175 1.31629096,38.8107111 0.946974576,39.0341397 C0.761206215,39.145854 0.500686441,39.2312825 0.163935028,39.2940762 L0.163935028,39.2940762 Z" id="Fill-21" fill="#FEFEFE"></path>
                        <path d="M18.1931616,34.7203619 L18.1931616,34.6144889 C18.1931616,34.4925524 18.1176701,34.431219 17.9674271,34.431219 L12.7363085,34.431219 C12.6437944,34.431219 12.5964271,34.4794095 12.5964271,34.577981 L12.5964271,34.753219 C12.5964271,34.8547111 12.6497153,34.9043619 12.7562915,34.9043619 L17.8897153,34.9043619 C17.9911107,34.9043619 18.0547605,34.899981 18.0828847,34.891219 C18.1561559,34.8656635 18.1931616,34.8087111 18.1931616,34.7203619 L18.1931616,34.7203619 Z M12.5675627,33.6762349 L18.1036079,33.6806159 C18.4040938,33.6806159 18.6194667,33.7434095 18.7519469,33.8689968 C18.8992294,34.0128381 18.9725006,34.1698222 18.9725006,34.3421397 L18.9725006,34.9671556 C18.9725006,35.0927429 18.9340147,35.2212508 18.8540825,35.3519492 C18.7312237,35.5505524 18.4855062,35.649854 18.1191503,35.649854 L12.5646023,35.649854 C12.3262859,35.649854 12.1382972,35.5702667 12.0013763,35.4103619 C11.8948,35.2876952 11.842252,35.1124571 11.842252,34.8831873 L11.842252,34.283727 C11.842252,34.1055683 11.9281051,33.9515048 12.1005514,33.8229968 C12.2315514,33.7266159 12.3877153,33.6762349 12.5675627,33.6762349 L12.5675627,33.6762349 Z M11.6328,38.0462349 L11.6328,37.3160762 L16.2237209,37.3160762 L17.4922746,36.8852825 L11.7600994,36.8852825 L11.7600994,36.1105841 L17.5166983,36.1105841 C18.176139,36.1105841 18.5054893,36.2850921 18.5054893,36.6341079 C18.5054893,36.7356 18.4729243,36.8327111 18.4063141,36.9276317 C18.3138,37.0590603 18.1243311,37.1875683 17.8401277,37.3160762 L19.1656701,37.3160762 L19.1656701,38.0462349 L16.1016023,38.041854 L16.1016023,38.3426794 C16.1016023,38.5807111 16.0505345,38.7705524 15.9528395,38.9129333 C15.7914949,39.1495048 15.5383763,39.2685206 15.1942237,39.2685206 L13.6355458,39.2685206 L13.6355458,38.4894413 L15.0136362,38.4938222 C15.2238282,38.4938222 15.3289243,38.409854 15.3289243,38.2411873 L15.3289243,38.0462349 L11.6328,38.0462349 Z M11.6328,33.2826794 L11.6328,32.545219 L15.0054949,32.545219 L15.0054949,32.1319492 L15.7766927,32.1319492 L15.7766927,32.545219 L19.1656701,32.545219 L19.1656701,33.2826794 L11.6328,33.2826794 Z" id="Fill-22" fill="#FEFEFE"></path>
                        <path d="M27.1800576,35.9381937 L29.2760576,35.9381937 C29.4018768,35.9381937 29.4855096,35.9199397 29.5269559,35.879781 C29.5684023,35.8381619 29.5883853,35.7782889 29.5883853,35.7001619 L29.5883853,35.2438127 L27.1800576,35.2438127 L27.1800576,35.9381937 Z M27.1800576,34.4552413 L29.5883853,34.4552413 L29.5883853,34.0003524 C29.5883853,33.8900984 29.5639616,33.8163524 29.514374,33.773273 C29.4655266,33.7331143 29.3855944,33.7148603 29.2760576,33.7148603 L27.1800576,33.7148603 L27.1800576,34.4552413 Z M26.4214418,35.9381937 L26.4214418,35.2438127 L23.9997921,35.2438127 L23.9997921,35.6417492 C23.9997921,35.7527333 24.0205153,35.8301302 24.0612215,35.871019 C24.1026678,35.9140984 24.1751989,35.935273 24.2795548,35.935273 L26.4214418,35.9381937 Z M23.9997921,34.4552413 L26.4214418,34.4552413 L26.4214418,33.7148603 L24.3076791,33.7148603 C24.1877808,33.7148603 24.1056282,33.7360349 24.0612215,33.7820349 C24.0205153,33.8258444 23.9997921,33.915654 23.9997921,34.0500032 L23.9997921,34.4552413 Z M23.0613288,38.1330508 L23.0613288,37.3583524 L26.4214418,37.3583524 L26.4214418,36.7267651 L24.4268373,36.7267651 C23.9613062,36.7267651 23.6778429,36.6924476 23.573487,36.625273 C23.3514531,36.4799714 23.2411763,36.2521619 23.2411763,35.9381937 L23.2411763,33.7148603 C23.2411763,33.1898762 23.5320407,32.9277492 24.1145096,32.9277492 L24.1145096,32.1274952 L24.8738655,32.1274952 L24.8738655,32.9277492 L28.7379955,32.9277492 L28.7379955,32.1274952 L29.5069729,32.1274952 L29.5069729,32.9277492 L29.5883853,32.9277492 C29.7793345,32.9277492 29.9466,32.9847016 30.0887017,33.0986063 C30.261148,33.2329556 30.3470011,33.3979714 30.3470011,33.593654 L30.3470011,35.9097175 C30.3470011,36.4544159 30.0864814,36.7267651 29.5639616,36.7267651 L27.1800576,36.7267651 L27.1800576,37.3583524 L30.5771763,37.3583524 L30.5771763,38.1330508 L27.1800576,38.1330508 L27.1800576,39.2392413 L26.4214418,39.2392413 L26.4214418,38.1330508 L23.0613288,38.1330508 Z" id="Fill-23" fill="#FEFEFE"></path>
                        <path d="M34.459735,37.9362 L34.459735,37.1615016 L37.9227237,37.1615016 L37.9227237,35.9508984 L35.6653791,35.9508984 C35.3071644,35.9508984 35.0592266,35.8910254 34.9186051,35.7712794 C34.7387576,35.6172159 34.6484638,35.4302952 34.6484638,35.2097873 C34.6484638,35.0637556 34.6773282,34.918454 34.7343169,34.7702317 L35.2020684,33.5851841 L34.459735,33.5851841 L34.459735,32.8177873 L35.514396,32.8177873 L35.7852774,32.1277873 L36.5764582,32.1277873 L36.2974356,32.8177873 L42.0000062,32.8177873 L42.0000062,33.5851841 L35.9851079,33.5851841 L35.5432605,34.6862635 C35.4625881,34.8899778 35.4241023,35.0068032 35.4241023,35.0382 C35.4241023,35.1309302 35.5099554,35.1769302 35.6824017,35.1769302 L37.9227237,35.1769302 L37.9227237,33.9531841 L38.6813395,33.9531841 L38.6813395,35.1769302 L41.8453226,35.1769302 L41.8453226,35.9508984 L38.6813395,35.9508984 L38.6813395,37.1615016 L42.0000062,37.1615016 L42.0000062,37.9362 L38.6813395,37.9362 L38.6813395,39.2395333 L37.9227237,39.2395333 L37.9227237,37.9362 L34.459735,37.9362 Z" id="Fill-24" fill="#FEFEFE"></path>
                        <path d="M50.055322,36.2691746 L52.2416158,36.2691746 L52.2416158,35.4820635 L50.055322,35.4820635 L50.055322,36.2691746 Z M49.773339,34.104254 L49.773339,33.2872063 C50.0323785,33.1557778 50.225548,32.9790794 50.3513672,32.7549206 C50.4246384,32.618381 50.4949492,32.4059048 50.5600791,32.1189524 L51.352,32.1189524 C51.3053729,32.2890794 51.2587458,32.4511746 51.2128588,32.6037778 L52.3977797,32.6037778 C52.7293503,32.6023175 52.9906102,32.7023492 53.1822994,32.9060635 C53.3791695,33.115619 53.4768644,33.3755556 53.4768644,33.6851429 L53.4768644,38.1215873 C53.4768644,38.483746 53.3791695,38.7692381 53.1822994,38.975873 C52.9906102,39.1795873 52.7530339,39.2810794 52.4680904,39.2810794 L50.4409209,39.2810794 L50.4409209,38.506381 L52.2675198,38.506381 C52.5709661,38.506381 52.7226893,38.3209206 52.7226893,37.9492698 L52.7226893,33.9742857 C52.7226893,33.7734921 52.6923446,33.6318413 52.6323955,33.552254 C52.5502429,33.4398095 52.4273842,33.3843175 52.2675198,33.3843175 L50.8472429,33.3799365 C50.5460169,33.7479365 50.1885424,33.9903492 49.773339,34.104254 L49.773339,34.104254 Z M48.6809322,36.3034921 L46.6626441,36.3034921 L46.6626441,38.2384127 C46.6626441,38.4224127 46.7351751,38.5151429 46.8794972,38.5151429 L48.444096,38.5151429 C48.601,38.5151429 48.6809322,38.4355556 48.6809322,38.2756508 L48.6809322,36.3034921 Z M46.6626441,35.5273333 L48.6809322,35.5273333 L48.6809322,33.7647302 C48.6809322,33.5953333 48.5913785,33.5099048 48.410791,33.5099048 L46.9409266,33.5055238 C46.7551582,33.5055238 46.6626441,33.612127 46.6626441,33.8231429 L46.6626441,35.5273333 Z M46.5523672,32.7308254 L46.5523672,32.1649524 L47.3028418,32.1649524 L47.3028418,32.7308254 L48.640226,32.7308254 C48.8918644,32.7308254 49.0887345,32.8009206 49.2315763,32.940381 C49.3707175,33.0791111 49.439548,33.2769841 49.439548,33.5354603 L49.439548,38.4311746 C49.439548,38.7334603 49.3758983,38.9488571 49.2478588,39.0802857 C49.1109379,39.2168254 48.954774,39.2854603 48.7793672,39.2854603 L46.6707853,39.2854603 C46.4213672,39.2854603 46.2326384,39.2168254 46.1045989,39.0802857 C46.0032034,38.9729524 45.9432542,38.856127 45.9240113,38.727619 C45.9099492,38.6509524 45.9040282,38.5450794 45.9040282,38.4136508 L45.9040282,33.6223492 C45.9040282,33.2726032 45.9817401,33.0316508 46.1364237,32.8980317 C46.2274576,32.8191746 46.3658588,32.7636825 46.5523672,32.7308254 L46.5523672,32.7308254 Z" id="Fill-25" fill="#FEFEFE"></path>
                        <path d="M63.3465672,37.1418603 L64.1088836,37.1418603 L64.1621718,37.3630984 C64.2694881,37.826019 64.3523808,38.1115111 64.4123299,38.2173841 C64.4981831,38.3736381 64.6469458,38.4641778 64.8600983,38.4897333 L64.8600983,39.2308444 C64.4337932,39.2308444 64.0889006,39.0453841 63.8261605,38.6737333 C63.7033017,38.4977651 63.6085672,38.2728762 63.5426972,37.9990667 C63.5323356,37.9618286 63.501991,37.8362413 63.4524034,37.6179238 L63.3991153,37.3711302 L63.3465672,37.1418603 Z M64.0104486,35.5274794 L59.7355559,35.5274794 L59.7355559,35.8173524 C59.7355559,35.9823683 59.8184486,36.0634159 59.9864542,36.0634159 L63.731426,36.0634159 C63.9179345,36.0634159 64.0104486,35.9706857 64.0104486,35.7830349 L64.0104486,35.5274794 Z M59.7355559,34.8287175 L64.0104486,34.8287175 L64.0104486,34.536654 C64.0104486,34.3365905 63.9179345,34.238019 63.731426,34.238019 L60.1455785,34.238019 C59.9575898,34.238019 59.8399119,34.2628444 59.7925446,34.3095746 C59.7547989,34.3511937 59.7355559,34.4205587 59.7355559,34.5176698 L59.7355559,34.8287175 Z M58.8452,39.2527492 L58.8452,38.4809714 C59.028748,38.4692889 59.1678893,38.3940825 59.264104,38.2553524 C59.3292339,38.1604317 59.3869627,38.0144 59.4358102,37.8150667 C59.5209232,37.4711619 59.5771718,37.2477333 59.6045559,37.1418603 L60.371313,37.1418603 C60.3224655,37.3470349 60.2869401,37.5025587 60.2647367,37.6055111 C60.1722226,38.0333841 60.0841492,38.3254476 60.0019966,38.4853524 C59.7481379,38.9774794 59.362539,39.2308444 58.8452,39.2527492 L58.8452,39.2527492 Z M57.2902226,39.2308444 L57.2902226,38.4393524 C57.4019797,38.3911619 57.4848723,38.3356698 57.5359401,38.2714159 C57.6284542,38.1626222 57.6758215,37.9830032 57.6758215,37.7310984 L57.6758215,33.2128762 C57.6758215,32.9135111 57.7742565,32.6623365 57.9711266,32.4630032 C58.1687367,32.2614794 58.4255559,32.1607175 58.7423243,32.1607175 L64.897104,32.1607175 L64.897104,32.936146 L60.7243469,32.936146 L60.7243469,33.4640508 L63.9164542,33.4640508 C64.1606915,33.4640508 64.3309175,33.4969079 64.4293525,33.5640825 C64.648426,33.7123048 64.7572226,33.8977651 64.7572226,34.1211937 L64.7572226,36.1196381 C64.7572226,36.3277333 64.6854316,36.5058921 64.5440701,36.6497333 C64.4182508,36.776781 64.2724486,36.8395746 64.1051831,36.8395746 L62.3370531,36.8395746 L62.3370531,38.3597651 C62.3370531,38.9402413 62.0905955,39.2308444 61.5984203,39.2308444 L60.7406294,39.2308444 L60.7406294,38.4597968 L61.2831322,38.4597968 C61.4711209,38.4597968 61.5658554,38.3911619 61.5658554,38.2553524 L61.5658554,36.8395746 L59.6696859,36.8395746 C59.4809571,36.8395746 59.3188723,36.7709397 59.1812113,36.6344 C59.0502113,36.5029714 58.9843412,36.3503683 58.9843412,36.1780508 L58.9843412,34.0956381 C58.9843412,33.9503365 59.0502113,33.8064952 59.1812113,33.6604635 C59.2966689,33.5283048 59.4668949,33.4640508 59.690409,33.4640508 L59.9701718,33.4640508 L59.9701718,32.936146 L58.9317932,32.936146 C58.7719288,32.936146 58.6490701,32.9806857 58.5624768,33.0690349 C58.478104,33.1559238 58.4344373,33.2574159 58.4344373,33.3713206 L58.4344373,37.7778286 C58.4344373,38.2699556 58.2790136,38.6503683 57.967426,38.9256381 C57.7779571,39.0899238 57.5529627,39.1914159 57.2902226,39.2308444 L57.2902226,39.2308444 Z" id="Fill-26" fill="#FEFEFE"></path>
                        <path d="M74.1585819,38.0069524 L74.9171977,38.0069524 L74.9171977,32.4497143 L74.1585819,32.4497143 L74.1585819,38.0069524 Z M74.1585819,39.2438413 L74.1585819,38.4596508 L75.0859435,38.4596508 C75.2280452,38.4596508 75.3405424,38.4165714 75.4226949,38.3296825 C75.4989266,38.2500952 75.5374124,38.1500635 75.5374124,38.0332381 L75.5374124,32.1364762 L76.3086102,32.1364762 L76.3086102,38.1588254 C76.3086102,38.4713333 76.2049944,38.732 76.0007232,38.9386349 C75.7986723,39.141619 75.5285311,39.2438413 75.1925198,39.2438413 L74.1585819,39.2438413 Z M70.8598983,37.5097143 L70.8598983,36.8394286 L72.4067345,36.8394286 C72.6909379,36.8394286 72.8337797,36.712381 72.8337797,36.4590159 L72.8337797,35.5791746 C72.8337797,35.3893333 72.7316441,35.2936825 72.5295932,35.2936825 L70.183435,35.2936825 C70.0154294,35.2936825 69.9036723,35.323619 69.8466836,35.3820317 C69.7756328,35.4550476 69.7393672,35.5631111 69.7393672,35.7084127 L69.7393672,37.9164127 C69.7393672,38.3099683 69.9029322,38.506381 70.2285819,38.506381 L73.6338418,38.506381 L73.6338418,39.2182857 L70.0598362,39.2182857 C69.7371469,39.2182857 69.4677458,39.1073016 69.2516328,38.8875238 C69.062904,38.6947619 68.9689096,38.4523492 68.9689096,38.1588254 L68.9689096,35.4448254 C68.9689096,35.162254 69.050322,34.9344444 69.2146271,34.7613968 C69.3589492,34.610254 69.5758023,34.5365079 69.862226,34.5365079 L72.7020395,34.5365079 C72.9781017,34.5365079 73.1979153,34.6204762 73.3629605,34.7913333 C73.4932203,34.9256825 73.5598305,35.098 73.5598305,35.3104762 L73.5598305,36.7269841 C73.5598305,36.896381 73.4872994,37.0592063 73.3422373,37.2118095 C73.1527684,37.4111429 72.8826271,37.5097143 72.5295932,37.5097143 L70.8598983,37.5097143 Z M68.7505763,34.4306349 L68.7505763,33.7019365 C69.0540226,33.6880635 69.2390508,33.6625079 69.3041808,33.6223492 C69.3863333,33.5719683 69.5225141,33.3244444 69.7112429,32.8805079 C69.8318814,32.6023175 69.9354972,32.4168571 70.0228305,32.3285079 C70.1486497,32.2007302 70.3307175,32.1364762 70.5682938,32.1364762 L71.9641469,32.1364762 C72.1632373,32.1364762 72.3245819,32.1978095 72.4474407,32.3204762 C72.5540169,32.4285397 72.6635537,32.6169206 72.7760508,32.8848889 C72.953678,33.3215238 73.0868983,33.5653968 73.1734915,33.6179683 C73.2504633,33.6632381 73.4362316,33.6909841 73.7322768,33.7019365 L73.7322768,34.4306349 C73.2341808,34.4277143 72.9040904,34.3678413 72.7434859,34.2510159 C72.6420904,34.1758095 72.5392147,34.0385397 72.4355989,33.8406667 C72.4074746,33.7902857 72.3142203,33.593873 72.1528757,33.2485079 C72.0951469,33.1360635 72.0462994,33.0572063 72.0085537,33.0148571 C71.9463842,32.9564444 71.8486893,32.9279683 71.7176893,32.9279683 L70.7163164,32.9279683 C70.5853164,32.9279683 70.4928023,32.9659365 70.4365537,33.0447937 C70.3988079,33.0944444 70.3025932,33.285746 70.1464294,33.6179683 C69.9954463,33.9414286 69.8585254,34.1487937 69.7356667,34.2386032 C69.5691412,34.3583492 69.2405311,34.4226032 68.7505763,34.4306349 L68.7505763,34.4306349 Z" id="Fill-27" fill="#FEFEFE"></path>
                        <path d="M86.8747593,37.7393492 L81.4142056,37.7393492 L81.4142056,38.0956667 C81.4142056,38.2409683 81.4312282,38.336619 81.4674938,38.3855397 C81.5000588,38.4293492 81.6273582,38.4527143 81.848652,38.4527143 L86.4070079,38.4527143 C86.6172,38.4527143 86.7444994,38.4351905 86.7889062,38.400873 C86.8488554,38.3570635 86.8792,38.2752857 86.8792,38.1584603 L86.8747593,37.7393492 Z M81.4142056,37.0018889 L86.8747593,37.0018889 L86.8747593,36.6587143 C86.8747593,36.5112222 86.853296,36.4148413 86.8088893,36.3688413 C86.7600418,36.3177302 86.6371831,36.2907143 86.4395729,36.2907143 L81.8567932,36.2907143 C81.6243977,36.2907143 81.4904373,36.3206508 81.455652,36.3790635 C81.4275277,36.4199524 81.4142056,36.5090317 81.4142056,36.6426508 L81.4142056,37.0018889 Z M80.1545333,36.5842381 L80.1545333,35.7825238 C80.4165333,35.714619 80.6222847,35.6386825 80.7703073,35.5576349 C80.9612565,35.4459206 81.1374034,35.2663016 81.2994881,35.0165873 L80.2692508,35.0165873 L80.2692508,34.242619 L83.6049401,34.242619 L83.6049401,33.3883333 L80.2692508,33.3883333 L80.2692508,32.6129048 L83.6049401,32.6129048 L83.6049401,32.1017937 L84.3635559,32.1017937 L84.3635559,32.6129048 L87.7118271,32.6129048 L87.7118271,33.3883333 L84.3635559,33.3883333 L84.3635559,34.242619 L86.6290418,34.242619 L86.6290418,33.8278889 L87.4039401,33.8278889 L87.4039401,34.242619 L87.7118271,34.242619 L87.7118271,35.0165873 L82.2312904,35.0165873 C82.1535785,35.1794127 82.0618045,35.3422381 81.9544881,35.502873 L86.7718836,35.502873 C87.0679288,35.502873 87.2825616,35.5729683 87.4157819,35.7131587 C87.5534429,35.852619 87.6215333,36.0154444 87.6215333,36.2023651 L87.6215333,38.4768095 C87.6215333,38.9842698 87.3388102,39.2398254 86.7718836,39.2398254 L81.4312282,39.2398254 C81.1892113,39.2398254 81.0004825,39.1697302 80.8650418,39.0302698 C80.7244203,38.8871587 80.6548497,38.7279841 80.6548497,38.5520159 L80.6548497,36.4586508 L80.1545333,36.5842381 Z" id="Fill-28" fill="#FEFEFE"></path>
                        <path d="M94.3481983,33.8476032 C94.3481983,33.6219841 94.2734469,33.4423651 94.1246842,33.3072857 C93.9751814,33.1714762 93.7945938,33.101381 93.579961,33.101381 C93.3446051,33.101381 93.1469949,33.1773175 92.9878706,33.327 C92.8280062,33.4766825 92.7488141,33.6789365 92.7488141,33.9344921 C92.7488141,34.0316032 92.7710175,34.1316349 92.8154243,34.2353175 C92.8598311,34.3397302 92.9123791,34.4368413 92.9723282,34.5281111 C93.0322774,34.6179206 93.095187,34.7018889 93.1610571,34.7800159 C93.2254469,34.8574127 93.2824356,34.9143651 93.3290627,34.9516032 C93.4334186,34.8873492 93.5459158,34.8216349 93.6658141,34.7559206 C93.7857124,34.688746 93.8974695,34.6120794 93.998865,34.5281111 C94.1010006,34.4419524 94.1846333,34.3441111 94.2505034,34.2309365 C94.3156333,34.1199524 94.3481983,33.9899841 94.3481983,33.8476032 L94.3481983,33.8476032 Z M93.1884412,35.5999841 C93.0056333,35.7058571 92.8494695,35.8073492 92.7221701,35.8993492 C92.5933904,35.9935397 92.4897746,36.0921111 92.4120627,36.1950635 C92.3328706,36.3002063 92.2758819,36.4104603 92.2388763,36.528746 C92.2026107,36.6455714 92.184848,36.777 92.184848,36.9208413 C92.184848,37.0792857 92.2151927,37.2275079 92.2781023,37.3596667 C92.3410119,37.4940159 92.4246446,37.6064603 92.5297407,37.7006508 C92.6340966,37.793381 92.7539949,37.8678571 92.8894356,37.9204286 C93.0263565,37.973 93.1691983,38.0000159 93.3209215,38.0000159 C93.4726446,38.0000159 93.6095655,37.9788413 93.7331644,37.9364921 C93.8560232,37.8934127 93.9700006,37.835 94.0780571,37.7605238 C94.1846333,37.6867778 94.2852887,37.5984286 94.3792831,37.4969365 C94.4732774,37.3954444 94.5650514,37.2859206 94.6546051,37.1690952 L93.1884412,35.5999841 Z M95.3436503,37.0719841 L96.5900006,38.3855397 L95.7906785,38.3855397 L95.0068989,37.5524286 C94.7767237,37.8561746 94.5310062,38.0956667 94.2704864,38.2687143 C94.0084864,38.4410317 93.6894977,38.529381 93.3142605,38.529381 C93.0833452,38.529381 92.8627915,38.4936032 92.6511192,38.4213175 C92.4394469,38.3483016 92.2536785,38.2438889 92.0945542,38.1044286 C91.9339497,37.9664286 91.8073904,37.7963016 91.7141362,37.5969683 C91.6194017,37.3969048 91.5720345,37.1690952 91.5720345,36.9120794 C91.5720345,36.7039841 91.6068198,36.5141429 91.6749102,36.3432857 C91.7430006,36.1731587 91.8355147,36.0198254 91.9531927,35.8840159 C92.0708706,35.746746 92.2055712,35.6255397 92.3572944,35.5189365 C92.5090175,35.4130635 92.6681418,35.3196032 92.8354073,35.2392857 C92.6681418,35.0582063 92.5171588,34.8574127 92.3846785,34.6347143 C92.2514582,34.4134762 92.184848,34.1725238 92.184848,33.9103968 C92.184848,33.6979206 92.2196333,33.506619 92.2906842,33.3430635 C92.3602548,33.1773175 92.4586898,33.0378571 92.5837689,32.9232222 C92.7095881,32.8078571 92.8553904,32.7209683 93.023396,32.6625556 C93.1906616,32.6041429 93.3734695,32.5742063 93.5710797,32.5742063 C93.7546277,32.5742063 93.9278141,32.6026825 94.0891588,32.6581746 C94.2512435,32.7136667 94.3940853,32.7954444 94.5169441,32.9020476 C94.6390627,33.0086508 94.7360175,33.1415397 94.8070684,33.2985238 C94.8773791,33.4555079 94.9121644,33.6395079 94.9121644,33.8476032 C94.9121644,34.0345238 94.876639,34.1995397 94.8026277,34.3470317 C94.7293565,34.4937937 94.6338819,34.6274127 94.5169441,34.7471587 C94.398526,34.8669048 94.2667859,34.9742381 94.1202435,35.0669683 C93.9744412,35.1611587 93.8301192,35.245127 93.6894977,35.3196032 L94.9676729,36.6638254 L95.7277689,35.3196032 L96.363526,35.3196032 L95.3436503,37.0719841 Z" id="Fill-29" fill="#FEFEFE"></path>
                        <path d="M104.010151,39.2353714 L104.010151,38.3767048 C104.463841,38.1328317 104.793191,37.876546 104.998942,37.6056571 C105.165468,37.3829587 105.269824,37.1493079 105.31127,36.9068952 C105.346055,36.6995302 105.363818,36.4688 105.363818,36.2147048 L105.363818,34.8288635 L106.147598,34.8288635 L106.147598,36.266546 C106.147598,36.6287048 106.180163,36.9193079 106.245293,37.1361651 C106.398496,37.650927 106.824801,38.0729587 107.521988,38.4008 L107.521988,39.2550857 C106.764852,38.9031492 106.174242,38.4694349 105.749417,37.9532127 C105.415626,38.4110222 104.836118,38.8388952 104.010151,39.2353714 L104.010151,39.2353714 Z M104.005711,32.8932127 L104.005711,32.1192444 L107.525688,32.1192444 L107.525688,32.8932127 L106.147598,32.8932127 L106.147598,33.552546 L106.68492,33.552546 C106.95136,33.552546 107.151931,33.6226413 107.288852,33.7650222 C107.419112,33.8986413 107.484982,34.0658476 107.484982,34.2637206 L107.484982,37.3632444 L106.730807,37.3632444 L106.730807,34.5565143 C106.730807,34.4024508 106.644214,34.325054 106.471767,34.325054 L105.007084,34.325054 C104.944914,34.325054 104.891626,34.3535302 104.85092,34.4097524 C104.816134,34.4579429 104.797632,34.5061333 104.797632,34.5565143 L104.797632,37.3632444 L104.039016,37.3632444 L104.039016,34.3097206 C104.039016,34.0797206 104.102666,33.8986413 104.231445,33.7650222 C104.362445,33.6226413 104.542293,33.552546 104.768767,33.552546 L105.384541,33.552546 L105.384541,32.8932127 L104.005711,32.8932127 Z M99.9402701,35.9051175 L99.9402701,35.1311492 L101.281355,35.1311492 L101.281355,34.3425778 L102.065134,34.3425778 L102.065134,35.1311492 L102.615038,35.1311492 C102.920705,35.1311492 103.173824,35.2392127 103.374394,35.4575302 C103.557202,35.659054 103.648976,35.8839429 103.648976,36.1351175 L103.648976,37.6093079 C103.648976,37.880927 103.546101,38.1189587 103.341829,38.322673 C103.139038,38.5263873 102.8874,38.6278794 102.586914,38.6278794 L101.831999,38.6278794 L101.831999,37.853181 L102.438151,37.853181 C102.564711,37.853181 102.666846,37.8122921 102.746038,37.7305143 C102.836332,37.6421651 102.881479,37.5326413 102.881479,37.4041333 L102.881479,36.2950222 C102.881479,36.1920698 102.846694,36.1022603 102.774903,36.0263238 C102.695711,35.9452762 102.595055,35.9051175 102.471456,35.9051175 L101.523372,35.9051175 L101.523372,39.2309905 L100.752174,39.2309905 L100.752174,35.9051175 L99.9402701,35.9051175 Z M99.9402701,34.384927 L99.9402701,33.6438159 C100.120118,33.621181 100.241496,33.5810222 100.305146,33.5226095 C100.362134,33.4707683 100.486473,33.2283556 100.678903,32.7939111 C100.784739,32.5514984 100.886134,32.3799111 100.982349,32.2820698 C101.102247,32.1615937 101.25101,32.1017206 101.429377,32.1017206 L102.110281,32.1017206 C102.293829,32.1017206 102.442592,32.1659746 102.55805,32.2944825 C102.649824,32.4003556 102.792666,32.6792762 102.983615,33.129054 C103.107214,33.4181968 103.248575,33.5824825 103.406219,33.6182603 C103.420281,33.621181 103.492812,33.6292127 103.623812,33.6438159 L103.623812,34.384927 C103.290021,34.3652127 103.053925,34.3184825 102.914044,34.242546 C102.791185,34.1782921 102.680908,34.058546 102.582473,33.8818476 C102.527705,33.7861968 102.441852,33.612419 102.324174,33.3539429 C102.23092,33.1487683 102.161349,33.0202603 102.113982,32.9735302 C102.068095,32.9231492 102.010366,32.8975937 101.942276,32.8975937 L101.613666,32.8975937 C101.51301,32.8975937 101.436038,32.9362921 101.384231,33.0107683 C101.329462,33.0888952 101.222146,33.2955302 101.063762,33.630673 C100.916479,33.9519429 100.768456,34.1541968 100.621174,34.2381651 C100.511637,34.2994984 100.285163,34.348419 99.9402701,34.384927 L99.9402701,34.384927 Z" id="Fill-30" fill="#FEFEFE"></path>
                        <path d="M116.537822,37.057673 L115.876901,37.0605937 C115.668929,37.0605937 115.565314,37.1533238 115.565314,37.3373238 L115.565314,37.7776095 C115.565314,37.9557683 115.660048,38.0463079 115.848037,38.0463079 L116.558545,38.0463079 C116.71915,38.0463079 116.800562,37.9674508 116.800562,37.8104667 L116.800562,37.3161492 C116.800562,37.1416413 116.712489,37.0532921 116.537822,37.057673 L116.537822,37.057673 Z M114.781534,35.8770063 L114.781534,35.1008476 L118.941709,35.1008476 L118.941709,35.8770063 L118.724116,35.8770063 L118.724116,38.363927 C118.724116,38.6508794 118.644924,38.8728476 118.48654,39.0298317 C118.341477,39.1722127 118.166071,39.2437683 117.961799,39.2437683 L117.423737,39.2437683 L117.423737,38.5282127 C117.30902,38.6508794 117.209105,38.727546 117.123992,38.7618635 C117.022596,38.8034825 116.91528,38.8246571 116.800562,38.8246571 L115.532008,38.8246571 C115.324037,38.8246571 115.15011,38.7531016 115.010969,38.6107206 C114.874048,38.4712603 114.805958,38.2909111 114.805958,38.0704032 L114.805958,37.057673 C114.805958,36.8196413 114.876268,36.6283397 115.01541,36.4830381 C115.154551,36.3391968 115.366963,36.266181 115.651907,36.266181 L116.791681,36.2691016 C117.008534,36.2691016 117.186901,36.3391968 117.329003,36.4742762 C117.474805,36.6166571 117.545856,36.7867841 117.545856,36.9817365 L117.545856,38.1003397 C117.545856,38.1945302 117.520692,38.3142762 117.468884,38.4551968 L117.727184,38.4551968 C117.878167,38.4595778 117.953658,38.3485937 117.953658,38.1244349 L117.953658,35.8770063 L114.781534,35.8770063 Z M114.785234,34.7876095 L114.781534,34.0742444 C115.109404,34.0559905 115.368444,34.0041492 115.557172,33.9245619 C115.776246,33.8259905 115.971636,33.6405302 116.143342,33.3667206 L114.781534,33.3667206 L114.781534,32.5927524 L116.455669,32.5927524 L116.59111,32.1364032 L117.37489,32.1364032 L117.239449,32.5927524 L118.941709,32.5927524 L118.941709,33.3667206 L117.558438,33.3623397 C117.718302,33.6222762 117.904071,33.8018952 118.117223,33.8990063 C118.325195,33.9975778 118.599777,34.0589111 118.941709,34.0830063 L118.941709,34.7744667 C118.564251,34.7474508 118.281528,34.7029111 118.092799,34.6444984 C117.76715,34.5466571 117.495528,34.394054 117.276455,34.1837683 C117.144715,34.0611016 117.006314,33.8632286 116.861251,33.589419 C116.676223,33.9048476 116.497856,34.1311968 116.32837,34.2728476 C116.081912,34.472181 115.790308,34.6116413 115.454297,34.6904984 C115.304054,34.7248159 115.08054,34.7562127 114.785234,34.7876095 L114.785234,34.7876095 Z M111.35111,37.563673 L113.123681,37.563673 L113.123681,36.8006571 L111.35111,36.8006571 L111.35111,37.563673 Z M111.61459,33.5682444 L112.376907,33.5682444 L112.122308,34.854054 C112.109726,34.9270698 112.102325,34.978181 112.102325,35.0081175 C112.102325,35.0928159 112.160794,35.1351651 112.279212,35.1351651 L113.107398,35.1351651 L113.38198,33.4682127 C113.390121,33.4185619 113.394562,33.3711016 113.394562,33.3302127 C113.394562,33.1703079 113.319071,33.0899905 113.168088,33.0899905 L111.436963,33.0899905 L111.436963,32.3160222 L113.423427,32.3160222 C113.661003,32.3160222 113.844551,32.3817365 113.973331,32.5124349 C114.092489,32.632181 114.153178,32.7847841 114.153178,32.9687841 C114.153178,33.0220857 114.149477,33.0804984 114.141336,33.1462127 L113.84159,35.1767841 C114.145777,35.3418 114.2975,35.5688794 114.2975,35.8580222 L114.293799,38.4698 C114.293799,38.7333873 114.23163,38.9312603 114.108771,39.0583079 C113.977771,39.1955778 113.805325,39.2634825 113.592172,39.2634825 L111.54872,39.2634825 L111.54872,38.5106889 L113.229517,38.5106889 C113.427127,38.5106889 113.526302,38.4208794 113.526302,38.2412603 L113.526302,36.2194508 C113.526302,36.004054 113.434528,35.8967206 113.25172,35.8967206 L111.912856,35.8967206 C111.688602,35.8967206 111.524297,35.815673 111.41698,35.6543079 C111.359992,35.5644984 111.331127,35.4600857 111.331127,35.3432603 C111.331127,35.3082127 111.335568,35.268054 111.343709,35.222054 L111.61459,33.5682444 Z" id="Fill-31" fill="#FEFEFE"></path>
                        <path d="M129.499939,37.7393492 L124.038645,37.7393492 L124.038645,38.0956667 C124.038645,38.2409683 124.056408,38.336619 124.091933,38.3855397 C124.125238,38.4293492 124.252538,38.4527143 124.473832,38.4527143 L129.032188,38.4527143 C129.24238,38.4527143 129.369679,38.4351905 129.414086,38.400873 C129.474035,38.3570635 129.50364,38.2752857 129.50364,38.1584603 L129.499939,37.7393492 Z M124.038645,37.0018889 L129.499939,37.0018889 L129.499939,36.6587143 C129.499939,36.5112222 129.478476,36.4148413 129.434069,36.3688413 C129.385221,36.3177302 129.262363,36.2907143 129.064753,36.2907143 L124.481973,36.2907143 C124.249577,36.2907143 124.115617,36.3206508 124.080092,36.3790635 C124.052707,36.4199524 124.038645,36.5090317 124.038645,36.6426508 L124.038645,37.0018889 Z M122.779713,36.5842381 L122.779713,35.7825238 C123.041713,35.714619 123.246724,35.6386825 123.394747,35.5576349 C123.586436,35.4459206 123.762583,35.2663016 123.923928,35.0165873 L122.894431,35.0165873 L122.894431,34.242619 L126.23012,34.242619 L126.23012,33.3883333 L122.894431,33.3883333 L122.894431,32.6129048 L126.23012,32.6129048 L126.23012,32.1017937 L126.988736,32.1017937 L126.988736,32.6129048 L130.337007,32.6129048 L130.337007,33.3883333 L126.988736,33.3883333 L126.988736,34.242619 L129.254221,34.242619 L129.254221,33.8278889 L130.02912,33.8278889 L130.02912,34.242619 L130.337007,34.242619 L130.337007,35.0165873 L124.85573,35.0165873 C124.778018,35.1794127 124.686984,35.3422381 124.580408,35.502873 L129.397063,35.502873 C129.693108,35.502873 129.907741,35.5729683 130.040962,35.7131587 C130.178623,35.852619 130.246713,36.0154444 130.246713,36.2023651 L130.246713,38.4768095 C130.246713,38.9842698 129.96399,39.2398254 129.397063,39.2398254 L124.055668,39.2398254 C123.814391,39.2398254 123.626402,39.1697302 123.489481,39.0302698 C123.3496,38.8871587 123.280029,38.7279841 123.280029,38.5520159 L123.280029,36.4586508 L122.779713,36.5842381 Z" id="Fill-32" fill="#FEFEFE"></path>
                    </g>
                </g>
            </g>
        </g>
    </g>
</svg>