<?xml version="1.0" encoding="UTF-8"?>
<svg width="247px" height="247px" viewBox="0 0 247 247" version="1.1" xmlns="http://www.w3.org/2000/svg" xmlns:xlink="http://www.w3.org/1999/xlink">
    <!-- Generator: Sketch 46.2 (44496) - http://www.bohemiancoding.com/sketch -->
    <title>元素3</title>
    <desc>Created with Sketch.</desc>
    <defs>
        <linearGradient x1="100%" y1="100%" x2="0%" y2="0%" id="linearGradient-1">
            <stop stop-color="#FFD900" offset="0%"></stop>
            <stop stop-color="#FFEE00" offset="100%"></stop>
        </linearGradient>
    </defs>
    <g id="Page-1" stroke="none" stroke-width="1" fill="none" fill-rule="evenodd">
        <g id="Artboard-2" transform="translate(-1110.000000, -1959.000000)" fill="url(#linearGradient-1)">
            <path d="M1110,2082.5 C1110,2014.40427 1165.40582,1959 1233.5,1959 C1301.60111,1959 1357,2014.40427 1357,2082.5 C1357,2150.59573 1301.60111,2206 1233.5,2206 C1165.40582,2206 1110,2150.59573 1110,2082.5 Z M1150,2082.5 C1150,2128.54044 1187.46062,2166 1233.5,2166 C1279.54407,2166 1317,2128.54044 1317,2082.5 C1317,2036.45956 1279.54407,1999 1233.5,1999 C1187.46062,1999 1150,2036.45956 1150,2082.5 Z" id="元素3"></path>
        </g>
    </g>
</svg>