<?xml version="1.0" encoding="UTF-8"?>
<svg width="32px" height="32px" viewBox="0 0 32 32" version="1.1" xmlns="http://www.w3.org/2000/svg" xmlns:xlink="http://www.w3.org/1999/xlink">
    <!-- Generator: Sketch 48.1 (47250) - http://www.bohemiancoding.com/sketch -->
    <title>微博</title>
    <desc>Created with Sketch.</desc>
    <defs></defs>
    <g id="大数据官网" stroke="none" stroke-width="1" fill="none" fill-rule="evenodd" transform="translate(-673.000000, -2508.000000)">
        <g id="Group-16" transform="translate(0.000000, 2337.000000)" fill="#B8BBC0">
            <g id="微博" transform="translate(673.000000, 171.000000)">
                <path d="M16,32 C7.163444,32 0,24.836556 0,16 C0,7.163444 7.163444,0 16,0 C24.836556,0 32,7.163444 32,16 C32,24.836556 24.836556,32 16,32 Z M21.0449254,9.60814007 C20.0701424,9.37932259 19.067655,9.57633136 18.7870201,9.63071399 C18.7649592,9.63225312 18.7449505,9.65277487 18.7249418,9.65687922 C18.715194,9.65893139 18.7090375,9.66919227 18.7090375,9.66919227 C18.4319939,9.74768795 18.2298547,10.0042098 18.2298547,10.3074186 C18.2298547,10.6691144 18.5222896,10.9661667 18.8870636,10.9661667 C18.8870636,10.9661667 19.2420899,10.9189667 19.4827073,10.8245666 C19.7212727,10.7281144 21.7406126,10.7527405 22.7430999,12.4396282 C23.2905175,13.6704199 22.9837174,14.4943681 22.9452392,14.6267334 C22.9452392,14.6267334 22.8154391,14.9463596 22.8154391,15.2613684 C22.8154391,15.6246033 23.107874,15.8534208 23.4705959,15.8534208 C23.7738047,15.8534208 24.0282744,15.8118643 24.1026657,15.2983075 L24.10677,15.2983075 C25.1831357,11.7044366 22.7892739,10.0154968 21.0449254,9.60814007 Z M21.3737864,14.90429 C21.5959343,14.90429 21.7847343,14.7390899 21.816543,14.5246377 C21.8206474,14.5087333 21.8226996,14.4943681 21.8226996,14.4764116 C22.1597693,11.4422712 19.3400812,11.9645497 19.3400812,11.9645497 C19.0902289,11.9645497 18.8891158,12.167202 18.8891158,12.4201325 C18.8891158,12.6689587 19.0902289,12.872124 19.3400812,12.872124 C21.3655777,12.4242368 20.9187166,14.4522985 20.9187166,14.4522985 C20.9187166,14.7031769 21.1223949,14.90429 21.3737864,14.90429 Z M20.0301249,16.0247774 C19.3785595,15.8980556 19.6951074,15.5471337 19.6951074,15.5471337 C19.6951074,15.5471337 20.3328207,14.4943681 19.5688987,13.72942 C18.6228461,12.7818283 16.3228713,13.8499852 16.3228713,13.8499852 C15.4440275,14.1229245 15.6769493,13.7253156 15.8011059,13.048611 C15.8011059,12.2513411 15.5286797,10.9020362 13.1886874,11.6993061 C10.8507474,12.5006803 8.8437205,15.3075423 8.8437205,15.3075423 C7.44824168,17.1729692 7.6329374,18.6146219 7.6329374,18.6146219 C7.98180711,21.7975449 11.3581476,22.6712583 13.9849312,22.8780149 C16.7481845,23.0950324 20.477499,21.9242667 21.6082473,19.5186049 C22.7389956,17.1088387 20.6842556,16.1550905 20.0301249,16.0247774 Z M14.1891226,21.9807015 C11.4463911,22.1089624 9.22850326,20.7314401 9.22850326,18.8983351 C9.22850326,17.0626648 11.4463911,15.5907424 14.1891226,15.4645337 C16.9344194,15.3378119 19.1558985,16.4706124 19.1558985,18.3021783 C19.1558985,20.1352834 16.9344194,21.8560319 14.1891226,21.9807015 Z M13.6422181,16.6732646 C10.8830691,16.9964821 11.2016693,19.5847875 11.2016693,19.5847875 C11.2016693,19.5847875 11.1734519,20.4041183 11.9414782,20.8217358 C13.5560267,21.6975014 15.2182882,21.1670142 16.0581408,20.0814138 C16.8979933,18.9947873 16.4049583,16.3520993 13.6422181,16.6732646 Z M12.9460178,20.3056139 C12.4309219,20.366153 12.0158696,20.0691008 12.0158696,19.637118 C12.0158696,19.2077004 12.384748,18.7572481 12.8998438,18.7033785 C13.4918963,18.6469437 13.876679,18.9886308 13.876679,19.4201005 C13.876679,19.8500311 13.4595745,20.2471269 12.9460178,20.3056139 Z M14.5723663,18.9183438 C14.3979314,19.0486569 14.1834791,19.0307003 14.0911313,18.874222 C13.9951921,18.721335 14.0311052,18.4766132 14.2075922,18.3478392 C14.4122966,18.1954652 14.6246967,18.2390739 14.7165315,18.392474 C14.8088794,18.5489523 14.7432098,18.7834133 14.5723663,18.9183438 Z"></path>
            </g>
        </g>
    </g>
</svg>