<?xml version="1.0" encoding="UTF-8"?>
<svg width="32px" height="32px" viewBox="0 0 32 32" version="1.1" xmlns="http://www.w3.org/2000/svg" xmlns:xlink="http://www.w3.org/1999/xlink">
    <!-- Generator: Sketch 48.1 (47250) - http://www.bohemiancoding.com/sketch -->
    <title>微信</title>
    <desc>Created with Sketch.</desc>
    <defs></defs>
    <g id="大数据官网" stroke="none" stroke-width="1" fill="none" fill-rule="evenodd" transform="translate(-735.000000, -2508.000000)">
        <g id="Group-16" transform="translate(0.000000, 2337.000000)" fill="#B8BBC0">
            <g id="微信" transform="translate(735.000000, 171.000000)">
                <path d="M16,32 C7.163444,32 0,24.836556 0,16 C0,7.163444 7.163444,0 16,0 C24.836556,0 32,7.163444 32,16 C32,24.836556 24.836556,32 16,32 Z M24.6128747,18.5114639 C24.6128747,16.0702402 22.1738114,14.0799948 19.434456,14.0799948 C16.5336126,14.0799948 14.2490161,16.0702402 14.2490161,18.5114639 C14.2490161,20.9564682 16.5336126,22.9423928 19.434456,22.9423928 C20.0415214,22.9423928 20.6539877,22.7890062 21.2637535,22.6361597 L22.9358837,23.5532389 L22.4773441,22.026934 C23.7011965,21.1076944 24.6128747,19.8881628 24.6128747,18.5114639 Z M19.048289,13.7521579 C19.2459633,13.7521579 19.4414772,13.7667405 19.6353709,13.7883442 C19.1082394,11.3282173 16.4817636,9.5 13.4842434,9.5 C10.1324217,9.5 7.38712529,11.787837 7.38712529,14.6930012 C7.38712529,16.3699922 8.30042379,17.7472313 9.82672867,18.8155367 L9.21696285,20.6518553 L11.3487128,19.5819297 C12.1113251,19.7331559 12.7232513,19.8881628 13.4842434,19.8881628 C13.6754366,19.8881628 13.8650095,19.8789812 14.0529621,19.8638586 C13.9341415,19.4560878 13.8650095,19.0283336 13.8650095,18.5843765 C13.8650095,15.9168536 16.1523064,13.7521579 19.048289,13.7521579 Z M21.1065862,17.7472313 C20.8052139,17.7472313 20.5011411,17.4447788 20.5011411,17.1363852 C20.5011411,16.8317724 20.8052139,16.5255392 21.1065862,16.5255392 C21.5635055,16.5255392 21.8697387,16.8317724 21.8697387,17.1363852 C21.8697387,17.4447788 21.5635055,17.7472313 21.1065862,17.7472313 Z M17.7531442,17.7472313 C17.4496116,17.7472313 17.1433784,17.4447788 17.1433784,17.1363852 C17.1433784,16.8317724 17.4496116,16.5255392 17.7531442,16.5255392 C18.2143843,16.5255392 18.5162967,16.8317724 18.5162967,17.1363852 C18.5162967,17.4447788 18.2143843,17.7472313 17.7531442,17.7472313 Z M11.5031796,13.6230755 C11.0462603,13.6230755 10.5855604,13.3163023 10.5855604,12.8583028 C10.5855604,12.3992231 11.0462603,12.0967707 11.5031796,12.0967707 C11.9600989,12.0967707 12.2647118,12.3992231 12.2647118,12.8583028 C12.2647118,13.3163023 11.9600989,13.6230755 11.5031796,13.6230755 Z M15.7704602,12.0967707 C16.2295398,12.0967707 16.5336126,12.3992231 16.5336126,12.8583028 C16.5336126,13.3163023 16.2295398,13.6230755 15.7704602,13.6230755 C15.3135409,13.6230755 14.8550013,13.3163023 14.8550013,12.8583028 C14.8550013,12.3992231 15.3135409,12.0967707 15.7704602,12.0967707 Z"></path>
            </g>
        </g>
    </g>
</svg>