<?xml version="1.0" encoding="UTF-8"?>
<svg width="1440px" height="560px" viewBox="0 0 1440 560" version="1.1" xmlns="http://www.w3.org/2000/svg" xmlns:xlink="http://www.w3.org/1999/xlink">
    <!-- Generator: Sketch 49 (51002) - http://www.bohemiancoding.com/sketch -->
    <title>bg_lbs</title>
    <desc>Created with Sketch.</desc>
    <defs>
        <path d="M199.715335,39 L222,39 C235.807119,39 247,50.1928813 247,64 C247,77.8071187 235.807119,89 222,89 L68,89 C54.1928813,89 43,77.8071187 43,64 C43,58.8126972 44.5798613,53.9943908 47.2846649,50 L25,50 C11.1928813,50 1.69088438e-15,38.8071187 0,25 C-1.69088438e-15,11.1928813 11.1928813,2.53632657e-15 25,0 L179,0 C192.807119,-2.53632657e-15 204,11.1928813 204,25 C204,30.1873028 202.420139,35.0056092 199.715335,39 Z" id="path-1"></path>
        <path d="M155.715335,50 C158.420139,53.9943908 160,58.8126972 160,64 C160,77.8071187 148.807119,89 135,89 L25,89 C11.1928813,89 1.69088438e-15,77.8071187 0,64 C-1.69088438e-15,50.1928813 11.1928813,39 25,39 L71.2846649,39 C68.5798613,35.0056092 67,30.1873028 67,25 C67,11.1928813 78.1928813,2.53632657e-15 92,0 L246,0 C259.807119,-2.53632657e-15 271,11.1928813 271,25 C271,38.8071187 259.807119,50 246,50 L155.715335,50 Z" id="path-3"></path>
        <rect id="path-5" x="0" y="0" width="204" height="50" rx="25"></rect>
        <rect id="path-7" x="0" y="0" width="50" height="50" rx="25"></rect>
        <rect id="path-9" x="0" y="0" width="170" height="170" rx="85"></rect>
    </defs>
    <g id="Page-1" stroke="none" stroke-width="1" fill="none" fill-rule="evenodd">
        <g id="商业合作" transform="translate(0.000000, -1753.000000)">
            <g id="人群xLBS精准投放" transform="translate(0.000000, 1753.000000)">
                <g id="Group-27" transform="translate(32.000000, 72.000000)">
                    <mask id="mask-2" fill="white">
                        <use xlink:href="#path-1"></use>
                    </mask>
                    <g id="Combined-Shape"></g>
                    <path d="M-46,1 L356,1 L356,2 L-46,2 L-46,1 Z M-46,41 L356,41 L356,42 L-46,42 L-46,41 Z M-46,21 L356,21 L356,22 L-46,22 L-46,21 Z M-46,61 L356,61 L356,62 L-46,62 L-46,61 Z M-46,11 L356,11 L356,12 L-46,12 L-46,11 Z M-46,51 L356,51 L356,52 L-46,52 L-46,51 Z M-46,31 L356,31 L356,32 L-46,32 L-46,31 Z M-46,71 L356,71 L356,72 L-46,72 L-46,71 Z M-46,81 L356,81 L356,82 L-46,82 L-46,81 Z M-46,6 L356,6 L356,7 L-46,7 L-46,6 Z M-46,46 L356,46 L356,47 L-46,47 L-46,46 Z M-46,26 L356,26 L356,27 L-46,27 L-46,26 Z M-46,66 L356,66 L356,67 L-46,67 L-46,66 Z M-46,16 L356,16 L356,17 L-46,17 L-46,16 Z M-46,56 L356,56 L356,57 L-46,57 L-46,56 Z M-46,36 L356,36 L356,37 L-46,37 L-46,36 Z M-46,76 L356,76 L356,77 L-46,77 L-46,76 Z M-46,86 L356,86 L356,87 L-46,87 L-46,86 Z" id="Combined-Shape" fill="#FFD900" mask="url(#mask-2)"></path>
                </g>
                <g id="Group-28" transform="translate(687.000000, 411.000000)">
                    <mask id="mask-4" fill="white">
                        <use xlink:href="#path-3"></use>
                    </mask>
                    <g id="Combined-Shape"></g>
                    <path d="M-107,1 L295,1 L295,2 L-107,2 L-107,1 Z M-107,41 L295,41 L295,42 L-107,42 L-107,41 Z M-107,21 L295,21 L295,22 L-107,22 L-107,21 Z M-107,61 L295,61 L295,62 L-107,62 L-107,61 Z M-107,11 L295,11 L295,12 L-107,12 L-107,11 Z M-107,51 L295,51 L295,52 L-107,52 L-107,51 Z M-107,31 L295,31 L295,32 L-107,32 L-107,31 Z M-107,71 L295,71 L295,72 L-107,72 L-107,71 Z M-107,81 L295,81 L295,82 L-107,82 L-107,81 Z M-107,6 L295,6 L295,7 L-107,7 L-107,6 Z M-107,46 L295,46 L295,47 L-107,47 L-107,46 Z M-107,26 L295,26 L295,27 L-107,27 L-107,26 Z M-107,66 L295,66 L295,67 L-107,67 L-107,66 Z M-107,16 L295,16 L295,17 L-107,17 L-107,16 Z M-107,56 L295,56 L295,57 L-107,57 L-107,56 Z M-107,36 L295,36 L295,37 L-107,37 L-107,36 Z M-107,76 L295,76 L295,77 L-107,77 L-107,76 Z M-107,86 L295,86 L295,87 L-107,87 L-107,86 Z" id="Combined-Shape" fill="#FFD900" mask="url(#mask-4)"></path>
                </g>
                <g id="Group-29" transform="translate(1018.000000, 160.000000)">
                    <mask id="mask-6" fill="white">
                        <use xlink:href="#path-5"></use>
                    </mask>
                    <g id="Rectangle-15-Copy-6"></g>
                    <path d="M-148,-18 L254,-18 L254,-17 L-148,-17 L-148,-18 Z M-148,22 L254,22 L254,23 L-148,23 L-148,22 Z M-148,2 L254,2 L254,3 L-148,3 L-148,2 Z M-148,42 L254,42 L254,43 L-148,43 L-148,42 Z M-148,-8 L254,-8 L254,-7 L-148,-7 L-148,-8 Z M-148,32 L254,32 L254,33 L-148,33 L-148,32 Z M-148,12 L254,12 L254,13 L-148,13 L-148,12 Z M-148,52 L254,52 L254,53 L-148,53 L-148,52 Z M-148,62 L254,62 L254,63 L-148,63 L-148,62 Z M-148,-13 L254,-13 L254,-12 L-148,-12 L-148,-13 Z M-148,27 L254,27 L254,28 L-148,28 L-148,27 Z M-148,7 L254,7 L254,8 L-148,8 L-148,7 Z M-148,47 L254,47 L254,48 L-148,48 L-148,47 Z M-148,-3 L254,-3 L254,-2 L-148,-2 L-148,-3 Z M-148,37 L254,37 L254,38 L-148,38 L-148,37 Z M-148,17 L254,17 L254,18 L-148,18 L-148,17 Z M-148,57 L254,57 L254,58 L-148,58 L-148,57 Z M-148,67 L254,67 L254,68 L-148,68 L-148,67 Z" id="Combined-Shape" fill="#FFD900" mask="url(#mask-6)"></path>
                </g>
                <g id="Group-30" transform="translate(1240.000000, 160.000000)">
                    <mask id="mask-8" fill="white">
                        <use xlink:href="#path-7"></use>
                    </mask>
                    <g id="Rectangle-15-Copy-7"></g>
                    <path d="M-305,-18 L97,-18 L97,-17 L-305,-17 L-305,-18 Z M-305,22 L97,22 L97,23 L-305,23 L-305,22 Z M-305,2 L97,2 L97,3 L-305,3 L-305,2 Z M-305,42 L97,42 L97,43 L-305,43 L-305,42 Z M-305,-8 L97,-8 L97,-7 L-305,-7 L-305,-8 Z M-305,32 L97,32 L97,33 L-305,33 L-305,32 Z M-305,12 L97,12 L97,13 L-305,13 L-305,12 Z M-305,52 L97,52 L97,53 L-305,53 L-305,52 Z M-305,62 L97,62 L97,63 L-305,63 L-305,62 Z M-305,-13 L97,-13 L97,-12 L-305,-12 L-305,-13 Z M-305,27 L97,27 L97,28 L-305,28 L-305,27 Z M-305,7 L97,7 L97,8 L-305,8 L-305,7 Z M-305,47 L97,47 L97,48 L-305,48 L-305,47 Z M-305,-3 L97,-3 L97,-2 L-305,-2 L-305,-3 Z M-305,37 L97,37 L97,38 L-305,38 L-305,37 Z M-305,17 L97,17 L97,18 L-305,18 L-305,17 Z M-305,57 L97,57 L97,58 L-305,58 L-305,57 Z M-305,67 L97,67 L97,68 L-305,68 L-305,67 Z" id="Combined-Shape" fill="#FFD900" mask="url(#mask-8)"></path>
                </g>
                <g id="Group-30-Copy" transform="translate(1102.000000, 459.000000)">
                    <mask id="mask-10" fill="white">
                        <use xlink:href="#path-9"></use>
                    </mask>
                    <g id="Rectangle-15-Copy-7"></g>
                    <path d="M-188,91 L214,91 L214,92 L-188,92 L-188,91 Z M-188,131 L214,131 L214,132 L-188,132 L-188,131 Z M-188,111 L214,111 L214,112 L-188,112 L-188,111 Z M-188,151 L214,151 L214,152 L-188,152 L-188,151 Z M-188,101 L214,101 L214,102 L-188,102 L-188,101 Z M-188,141 L214,141 L214,142 L-188,142 L-188,141 Z M-188,121 L214,121 L214,122 L-188,122 L-188,121 Z M-188,161 L214,161 L214,162 L-188,162 L-188,161 Z M-188,171 L214,171 L214,172 L-188,172 L-188,171 Z M-188,96 L214,96 L214,97 L-188,97 L-188,96 Z M-188,136 L214,136 L214,137 L-188,137 L-188,136 Z M-188,116 L214,116 L214,117 L-188,117 L-188,116 Z M-188,156 L214,156 L214,157 L-188,157 L-188,156 Z M-188,106 L214,106 L214,107 L-188,107 L-188,106 Z M-188,146 L214,146 L214,147 L-188,147 L-188,146 Z M-188,126 L214,126 L214,127 L-188,127 L-188,126 Z M-188,166 L214,166 L214,167 L-188,167 L-188,166 Z M-188,176 L214,176 L214,177 L-188,177 L-188,176 Z M-188,2 L214,2 L214,3 L-188,3 L-188,2 Z M-188,42 L214,42 L214,43 L-188,43 L-188,42 Z M-188,22 L214,22 L214,23 L-188,23 L-188,22 Z M-188,62 L214,62 L214,63 L-188,63 L-188,62 Z M-188,12 L214,12 L214,13 L-188,13 L-188,12 Z M-188,52 L214,52 L214,53 L-188,53 L-188,52 Z M-188,32 L214,32 L214,33 L-188,33 L-188,32 Z M-188,72 L214,72 L214,73 L-188,73 L-188,72 Z M-188,82 L214,82 L214,83 L-188,83 L-188,82 Z M-188,7 L214,7 L214,8 L-188,8 L-188,7 Z M-188,47 L214,47 L214,48 L-188,48 L-188,47 Z M-188,27 L214,27 L214,28 L-188,28 L-188,27 Z M-188,67 L214,67 L214,68 L-188,68 L-188,67 Z M-188,17 L214,17 L214,18 L-188,18 L-188,17 Z M-188,57 L214,57 L214,58 L-188,58 L-188,57 Z M-188,37 L214,37 L214,38 L-188,38 L-188,37 Z M-188,77 L214,77 L214,78 L-188,78 L-188,77 Z M-188,87 L214,87 L214,88 L-188,88 L-188,87 Z" id="Combined-Shape" fill="#FFD900" mask="url(#mask-10)"></path>
                </g>
            </g>
        </g>
    </g>
</svg>