<?xml version="1.0" encoding="UTF-8"?>
<svg width="2040px" height="560px" viewBox="0 0 2040 560" version="1.1" xmlns="http://www.w3.org/2000/svg" xmlns:xlink="http://www.w3.org/1999/xlink">
    <!-- Generator: Sketch 49 (51002) - http://www.bohemiancoding.com/sketch -->
    <title>bg_user</title>
    <desc>Created with Sketch.</desc>
    <defs></defs>
    <g id="Page-1" stroke="none" stroke-width="1" fill="none" fill-rule="evenodd" opacity="0.600000024">
        <g id="Group-9-Copy">
            <path d="M573.039919,836.97122 C720.626837,836.97122 767.859055,481.058976 775.012724,325.234364 C782.166394,169.409752 748.201865,65.7635138 591.733827,61.7142402 C435.265788,57.6649666 324.620389,131.946698 289.332363,292.406697 C254.044336,452.866697 425.453001,836.97122 573.039919,836.97122 Z" id="Oval-4-Copy-9" fill="#FFE23E" transform="translate(530.278889, 449.264301) scale(-1, 1) rotate(-210.000000) translate(-530.278889, -449.264301) "></path>
            <path d="M484.78621,813.418899 C632.373128,813.418899 679.605346,457.506655 686.759016,301.682043 C693.912685,145.857431 662.13563,5.35500594 514.548712,5.35500594 C366.961794,5.35500594 279.808595,95.7348535 243.204771,288.084471 C206.600946,480.434088 337.199292,813.418899 484.78621,813.418899 Z" id="Oval-4-Copy-2" stroke="#FFE75D" stroke-width="6" transform="translate(462.336911, 409.386953) scale(-1, 1) rotate(-225.000000) translate(-462.336911, -409.386953) "></path>
        </g>
    </g>
</svg>