<?xml version="1.0" encoding="UTF-8"?>
<svg width="284px" height="512px" viewBox="0 0 284 512" version="1.1" xmlns="http://www.w3.org/2000/svg" xmlns:xlink="http://www.w3.org/1999/xlink">
    <!-- Generator: Sketch 49 (51002) - http://www.bohemiancoding.com/sketch -->
    <title>ic_phone</title>
    <desc>Created with Sketch.</desc>
    <defs></defs>
    <g id="Page-1" stroke="none" stroke-width="1" fill="none" fill-rule="evenodd">
        <path d="M264,512 L264,84 C264,80.6862915 261.313708,78 258,78 L26,78 C22.6862915,78 20,80.6862915 20,84 L20,512 L0,512 L0,33.9984528 C-2.29960275e-15,15.2207713 15.2223185,-0.00154718953 34,-0.00154718953 L250,-0.00154718953 C268.777681,-0.00154718953 284,15.2207713 284,33.9984528 L284,512 L264,512 Z M122,44 C119.790861,44 118,45.790861 118,48 C118,50.209139 119.790861,52 122,52 L162,52 C164.209139,52 166,50.209139 166,48 C166,45.790861 164.209139,44 162,44 L122,44 Z M142,34 C144.209139,34 146,32.209139 146,30 C146,27.790861 144.209139,26 142,26 C139.790861,26 138,27.790861 138,30 C138,32.209139 139.790861,34 142,34 Z" id="ic_phone" fill="#FFD900"></path>
    </g>
</svg>