<?xml version="1.0" encoding="UTF-8"?>
<svg width="24px" height="26px" viewBox="0 0 24 26" version="1.1" xmlns="http://www.w3.org/2000/svg" xmlns:xlink="http://www.w3.org/1999/xlink">
    <!-- Generator: Sketch 49 (51002) - http://www.bohemiancoding.com/sketch -->
    <title>Icon</title>
    <desc>Created with Sketch.</desc>
    <defs></defs>
    <g id="Page-1" stroke="none" stroke-width="1" fill="none" fill-rule="evenodd">
        <g id="关于-商业合作" transform="translate(-203.000000, -3089.000000)" fill="#F7AF07">
            <g id="联系方式" transform="translate(0.000000, 2873.000000)">
                <g id="Group-21" transform="translate(185.000000, 204.000000)">
                    <path d="M29,12 L19,12 C18.4477153,12 18,12.4477153 18,13 L18,37 C18,37.5522847 18.4477153,38 19,38 L41,38 C41.5522847,38 42,37.5522847 42,37 L42,20 C42,19.4477153 41.5522847,19 41,19 L30,19 L30,13 C30,12.4477153 29.5522847,12 29,12 Z M20,31.5 L20,31.5 C20,30.6715729 20.6715729,30 21.5,30 L21.5,30 C22.3284271,30 23,30.6715729 23,31.5 L23,31.5 C23,32.3284271 22.3284271,33 21.5,33 L21.5,33 C20.6715729,33 20,32.3284271 20,31.5 Z M20,25.5 L20,25.5 C20,24.6715729 20.6715729,24 21.5,24 L21.5,24 C22.3284271,24 23,24.6715729 23,25.5 L23,25.5 C23,26.3284271 22.3284271,27 21.5,27 L21.5,27 C20.6715729,27 20,26.3284271 20,25.5 Z M20,17.5 L20,17.5 C20,16.6715729 20.6715729,16 21.5,16 L21.5,16 C22.3284271,16 23,16.6715729 23,17.5 L23,17.5 C23,18.3284271 22.3284271,19 21.5,19 L21.5,19 C20.6715729,19 20,18.3284271 20,17.5 Z M25,31.5 L25,31.5 C25,30.6715729 25.6715729,30 26.5,30 L26.5,30 C27.3284271,30 28,30.6715729 28,31.5 L28,31.5 C28,32.3284271 27.3284271,33 26.5,33 L26.5,33 C25.6715729,33 25,32.3284271 25,31.5 Z M25,25.5 L25,25.5 C25,24.6715729 25.6715729,24 26.5,24 L26.5,24 C27.3284271,24 28,24.6715729 28,25.5 L28,25.5 C28,26.3284271 27.3284271,27 26.5,27 L26.5,27 C25.6715729,27 25,26.3284271 25,25.5 Z M30,36 L30,34 L30,31 L30,29 L30,26 L30,21 L40,21 L40,36 L30,36 Z M36,25.5 L36,25.5 C36,26.3284271 36.6715729,27 37.5,27 L37.5,27 C38.3284271,27 39,26.3284271 39,25.5 L39,25.5 C39,24.6715729 38.3284271,24 37.5,24 L37.5,24 C36.6715729,24 36,24.6715729 36,25.5 Z M31,25.5 L31,25.5 C31,26.3284271 31.6715729,27 32.5,27 L32.5,27 C33.3284271,27 34,26.3284271 34,25.5 L34,25.5 C34,24.6715729 33.3284271,24 32.5,24 L32.5,24 C31.6715729,24 31,24.6715729 31,25.5 Z M36,31.5 L36,31.5 C36,32.3284271 36.6715729,33 37.5,33 L37.5,33 C38.3284271,33 39,32.3284271 39,31.5 L39,31.5 C39,30.6715729 38.3284271,30 37.5,30 L37.5,30 C36.6715729,30 36,30.6715729 36,31.5 Z M31,31.5 L31,31.5 C31,32.3284271 31.6715729,33 32.5,33 L32.5,33 C33.3284271,33 34,32.3284271 34,31.5 L34,31.5 C34,30.6715729 33.3284271,30 32.5,30 L32.5,30 C31.6715729,30 31,30.6715729 31,31.5 Z" id="Icon"></path>
                </g>
            </g>
        </g>
    </g>
</svg>