<?xml version="1.0" encoding="UTF-8"?>
<svg width="144px" height="30px" viewBox="0 0 144 30" version="1.1" xmlns="http://www.w3.org/2000/svg" xmlns:xlink="http://www.w3.org/1999/xlink">
    <!-- Generator: Sketch 46.2 (44496) - http://www.bohemiancoding.com/sketch -->
    <title>logo</title>
    <desc>Created with Sketch.</desc>
    <defs>
        <linearGradient x1="100%" y1="100%" x2="0%" y2="0%" id="linearGradient-1">
            <stop stop-color="#F2B912" offset="0%"></stop>
            <stop stop-color="#FBD805" offset="27.2396919%"></stop>
            <stop stop-color="#FFE700" offset="56.4811862%"></stop>
            <stop stop-color="#FCE934" offset="82.7327806%"></stop>
            <stop stop-color="#FCEC61" offset="100%"></stop>
        </linearGradient>
    </defs>
    <g id="Page-1" stroke="none" stroke-width="1" fill="none" fill-rule="evenodd">
        <g id="新闻" transform="translate(-648.000000, -21.000000)">
            <g id="Group-2">
                <g id="logo" transform="translate(648.000000, 21.000000)">
                    <g id="Group">
                        <path d="M0,19.0346939 C0,25.0426531 4.912,29.9308163 10.952,29.9308163 L10.952,29.9308163 C16.9938462,29.9308163 21.9046154,25.0426531 21.9046154,19.0346939 L21.9046154,19.0346939 C21.9046154,13.0261224 16.9938462,8.13857143 10.952,8.13857143 L10.952,8.13857143 C4.912,8.13857143 0,13.0261224 0,19.0346939 M3.79507692,19.0346939 C3.79507692,15.1089796 7.00615385,11.9142857 10.952,11.9142857 L10.952,11.9142857 C14.8978462,11.9142857 18.1095385,15.1089796 18.1095385,19.0346939 L18.1095385,19.0346939 C18.1095385,22.9610204 14.8978462,26.155102 10.952,26.155102 L10.952,26.155102 C7.00615385,26.155102 3.79507692,22.9610204 3.79507692,19.0346939 M37.9286154,19.0346939 C37.9286154,25.0426531 42.8424615,29.9308163 48.8812308,29.9308163 L48.8812308,29.9308163 C54.9230769,29.9308163 59.8338462,25.0426531 59.8338462,19.0346939 L59.8338462,19.0346939 C59.8338462,13.0261224 54.9230769,8.13857143 48.8812308,8.13857143 L48.8812308,8.13857143 C42.8424615,8.13857143 37.9286154,13.0261224 37.9286154,19.0346939 M41.7249231,19.0346939 C41.7249231,15.1089796 44.936,11.9142857 48.8812308,11.9142857 C52.8276923,11.9142857 56.0393846,15.1089796 56.0393846,19.0346939 C56.0393846,22.9610204 52.8276923,26.155102 48.8812308,26.155102 C44.936,26.155102 41.7249231,22.9610204 41.7249231,19.0346939 Z M36.0055385,0 L36.0763077,0 C37.1021538,0.0195918367 37.9286154,0.856530612 37.9286154,1.88693878 C37.9286154,2.92163265 37.0972308,3.7622449 36.0633846,3.77326531 L36.0418462,3.77326531 L36.0190769,3.77326531 L33.3298462,3.77326531 C31.5544615,3.77326531 30.1095385,5.21326531 30.1095385,6.97836735 C30.1095385,6.99979592 30.1095385,7.02061224 30.1064615,7.04020408 L30.1064615,8.13428571 L36.0055385,8.13428571 L36.0916923,8.13428571 C37.1150769,8.15755102 37.9372308,8.99387755 37.9372308,10.0206122 C37.9372308,11.0497959 37.1150769,11.8855102 36.0904615,11.9069388 L36.0707692,11.9069388 L36.0270769,11.9069388 L36.0055385,11.9069388 L30.1083077,11.9069388 C30.1083077,11.9069388 30.1064615,19.4944898 30.1064615,19.83 L30.1064615,19.834898 L30.1064615,19.8428571 L30.1064615,27.9789796 C30.1083077,27.9997959 30.1083077,28.022449 30.1083077,28.0444898 C30.1083077,28.0653061 30.1083077,28.0879592 30.1064615,28.1093878 C30.0732308,29.1220408 29.2375385,29.9308163 28.2123077,29.9308163 C27.1649231,29.9308163 26.3150769,29.0859184 26.3150769,28.0444898 L26.3150769,16.0695918 L26.3150769,9.55163265 L26.3150769,6.97836735 C26.3150769,3.13102041 29.4621538,0 33.3298462,0 L36.0055385,0 Z" id="Fill-7" fill="url(#linearGradient-1)"></path>
                        <g id="Group-19" transform="translate(67.076923, 7.346939)" fill="#3E3A39">
                            <path d="M75.7830154,16.5323878 C76.3184,16.5323878 76.7547077,16.9548367 76.7547077,17.4893265 C76.7547077,18.0238163 76.3184,18.4383061 75.7830154,18.4383061 L66.7387077,18.4383061 L66.7387077,21.3966735 C66.7387077,21.9317755 66.3011692,22.3627959 65.7682462,22.3627959 C65.2316308,22.3627959 64.7984,21.9317755 64.7984,21.3966735 L64.7984,18.4383061 L55.1054769,18.4383061 C54.5731692,18.4383061 54.1356308,18.0238163 54.1356308,17.4893265 C54.1356308,16.9548367 54.5731692,16.5323878 55.1054769,16.5323878 L64.7984,16.5323878 L64.7984,12.6238163 L57.3202462,12.6238163 C57.0020923,12.6238163 56.6999385,12.5840204 56.4230154,12.4664694 C55.6131692,12.120551 55.0451692,11.2597347 55.0451692,10.3242245 C55.0451692,10.1785102 55.0605538,10.0334082 55.0864,9.89197959 C55.0925538,9.8674898 55.0980923,9.84361224 55.1024,9.82095918 C55.1460923,9.63606122 55.2014769,9.45483673 55.2734769,9.27483673 L56.6624,5.22789796 L54.8937846,5.22789796 L54.8919385,5.22789796 C54.3645538,5.22789796 53.9374769,4.80483673 53.9374769,4.27279592 C53.9374769,3.75116327 54.3645538,3.32504082 54.8919385,3.32504082 L54.8937846,3.32504082 L57.4630154,3.32504082 L58.1362462,1.67810204 L58.3165538,1.24402041 C58.3165538,1.24402041 58.3467077,1.17544898 58.3990154,1.07810204 C58.4217846,1.03830612 58.4470154,0.99544898 58.4771692,0.949530612 C58.6451692,0.716265306 58.9171692,0.565040816 59.2260923,0.565040816 C59.7344,0.565040816 60.1485538,0.975244898 60.1485538,1.48218367 C60.1485538,1.58504082 60.1294769,1.68238776 60.0993231,1.77606122 C60.0993231,1.77606122 60.0974769,1.7785102 60.0968615,1.77973469 L60.0396308,1.91320408 L59.4427077,3.32504082 L75.5719385,3.32504082 C76.1011692,3.32504082 76.5294769,3.75116327 76.5294769,4.27279592 C76.5294769,4.80483673 76.1011692,5.22789796 75.5719385,5.22789796 L58.6464,5.22789796 L57.6642462,8.08953061 L57.4033231,8.85055102 C57.1774769,9.41626531 57.0808615,9.69422449 57.0384,9.84544898 C57.0353231,9.86626531 57.0273231,9.8852449 57.0236308,9.90789796 C57.0180923,9.94279592 57.0125538,9.97891837 57.0125538,10.0162653 C57.0125538,10.1007551 57.0304,10.1809592 57.0599385,10.2550408 C57.1547077,10.4938163 57.3891692,10.7227959 57.6630154,10.7227959 C57.7091692,10.7227959 64.7984,10.7215714 64.7984,10.7215714 L64.7984,7.40197959 L64.7984,7.39953061 C64.7984,6.86626531 65.2316308,6.43402041 65.7682462,6.43402041 C66.3011692,6.43402041 66.7387077,6.86626531 66.7387077,7.39953061 L66.7387077,7.40197959 L66.7387077,10.7215714 L74.6113231,10.7215714 C75.1460923,10.7215714 75.5805538,11.1544286 75.5805538,11.6864694 C75.5805538,12.2191224 75.1460923,12.6238163 74.6113231,12.6238163 L66.7387077,12.6238163 L66.7387077,16.5323878 L75.7830154,16.5323878 Z" id="Fill-9"></path>
                            <path d="M33.2843077,6.43408163 L43.7772308,6.43408163 L43.7772308,4.27714286 L33.2843077,4.27714286 L33.2843077,6.43408163 Z M46.7729231,11.6430612 C47.1304615,11.6430612 47.4276923,11.8928571 47.5046154,12.2246939 C47.5304615,12.3012245 47.5261538,13.1363265 47.5261538,13.1363265 L39.4683077,13.1363265 L39.4683077,11.6430612 L46.7729231,11.6430612 Z M47.4972308,15.9814286 C47.4098462,16.3010204 47.1187692,16.5397959 46.7729231,16.5397959 L39.4683077,16.5397959 L39.4683077,15.0361224 L47.5378462,15.0361224 L47.5378462,15.6397959 C47.5378462,15.6844898 47.5273846,15.8718367 47.4972308,15.9814286 L47.4972308,15.9814286 Z M37.5569231,13.1363265 L29.512,13.1363265 C29.512,13.1363265 29.5113846,12.3514286 29.512,12.3318367 C29.5366154,12.0385714 29.7316923,11.794898 29.9969231,11.6932653 C30.0806154,11.6626531 30.1692308,11.6430612 30.2627692,11.6430612 L37.5569231,11.6430612 L37.5569231,13.1363265 Z M37.5569231,16.5397959 L30.2627692,16.5397959 C29.8486154,16.5397959 29.512,16.1993878 29.512,15.7873469 L29.512,15.0361224 L37.5569231,15.0361224 L37.5569231,16.5397959 Z M48.9876923,4.27714286 C49.5009231,4.26061224 49.9144615,3.84367347 49.9150769,3.32877551 L49.9150769,3.32204082 C49.9144615,2.80102041 49.4947692,2.38102041 48.9735385,2.37306122 L45.6916923,2.37306122 L45.6916923,1.51653061 C45.6916923,1.20183673 45.5366154,0.924489796 45.3015385,0.750612245 C45.1427692,0.634285714 44.9470769,0.565102041 44.7341538,0.565102041 C44.52,0.565102041 44.3243077,0.634285714 44.1661538,0.750612245 C43.9341538,0.922040816 43.7815385,1.19387755 43.7772308,1.50183673 L43.7772308,1.53244898 L43.7772308,2.37306122 L33.2843077,2.37306122 L33.2843077,1.54591837 L33.2843077,1.52387755 C33.28,1.2055102 33.1224615,0.925714286 32.8824615,0.750612245 C32.7212308,0.633061224 32.5218462,0.565102041 32.3076923,0.565102041 C32.0929231,0.565102041 31.8935385,0.633061224 31.7316923,0.750612245 C31.4984615,0.923265306 31.3433846,1.19510204 31.3323077,1.50428571 L31.3323077,2.37306122 L28.0516923,2.37306122 C27.5286154,2.38102041 27.1083077,2.80408163 27.1083077,3.32510204 C27.1083077,3.84122449 27.5212308,4.26061224 28.0381538,4.27714286 L31.3323077,4.27714286 L31.3323077,6.43408163 L28.0972308,6.43408163 L28.0356923,6.43408163 C27.5212308,6.45 27.1083077,6.86938776 27.1083077,7.3855102 C27.1083077,7.90836735 27.5304615,8.33204082 28.0553846,8.33755102 L28.0781538,8.33755102 L37.5569231,8.33755102 L37.5569231,9.73836735 L30.2104615,9.73836735 C28.8092308,9.76653061 27.6738462,10.8667347 27.6012308,12.2485714 C27.6012308,12.3373469 27.5993846,15.8455102 27.5993846,15.9232653 C27.6701538,17.3087755 28.808,18.4120408 30.2110769,18.4383673 L46.8541538,18.4383673 C48.2627692,18.3955102 49.3950769,17.2708163 49.4387692,15.8718367 L49.4387692,12.3085714 C49.3938462,10.9059184 48.2578462,9.77938776 46.8461538,9.73959184 L39.4683077,9.73959184 L39.4683077,8.33755102 L48.9489231,8.33755102 L48.9698462,8.33755102 C49.4910769,8.33204082 49.9144615,7.91020408 49.9150769,7.38795918 L49.9150769,7.38122449 C49.9144615,6.86816327 49.5021538,6.45 48.9889231,6.43408163 L48.928,6.43408163 L45.6916923,6.43408163 L45.6916923,4.27714286 L48.9876923,4.27714286 Z" id="Fill-11"></path>
                            <path d="M32.3238769,19.0883878 C32.1995692,19.0883878 32.0795692,19.1134898 31.9700308,19.1551224 C31.9448,19.1673673 31.9177231,19.1783878 31.8931077,19.1894082 C31.7866462,19.236551 31.6820308,19.2824694 31.5774154,19.3277755 C31.1958769,19.4912449 30.8014154,19.6436939 30.4124923,19.7826735 C30.0057231,19.924102 29.5848,20.0532857 29.1620308,20.1702245 C28.7497231,20.2853265 28.3146462,20.3973673 27.8678769,20.5045102 C27.8561846,20.5069592 27.8463385,20.5100204 27.8346462,20.5124694 C27.4186462,20.6098163 27.1084923,20.9820612 27.1084923,21.4259388 C27.1084923,21.943898 27.5288,22.3632857 28.0518769,22.3632857 C28.1177231,22.3632857 28.1817231,22.3571633 28.2420308,22.3449184 L28.2438769,22.3449184 C29.2291077,22.1232857 30.1731077,21.8661429 31.0500308,21.5802245 C31.4795692,21.4387959 31.9171077,21.2716531 32.3460308,21.0861429 C32.4543385,21.039 32.5626462,20.9912449 32.6721846,20.9428776 C32.7091077,20.9294082 32.7454154,20.9134898 32.7798769,20.8957347 C33.0820308,20.7334898 33.2881846,20.4151224 33.2881846,20.049 C33.2881846,19.5187959 32.8555692,19.0883878 32.3238769,19.0883878" id="Fill-13"></path>
                            <path d="M49.4116308,20.563102 L49.4110154,20.5612653 C49.3925538,20.5520816 49.3740923,20.542898 49.3562462,20.5349388 C49.3384,20.5282041 49.3211692,20.5196327 49.3027077,20.512898 C49.2953231,20.510449 49.2904,20.5073878 49.2848615,20.5043265 L49.2762462,20.5012653 L49.2540923,20.4945306 L49.2202462,20.4847347 L44.8208615,19.1341224 L44.7771692,19.1218776 C44.6947077,19.0973878 44.6060923,19.0845306 44.5168615,19.0845306 C43.9888615,19.0845306 43.5611692,19.5088163 43.5611692,20.0335102 C43.5611692,20.4547347 43.8374769,20.810449 44.2165538,20.9365714 L44.2460923,20.9439184 L48.6959385,22.3367755 L48.7254769,22.3435102 C48.7654769,22.3502449 48.8079385,22.3551429 48.8479385,22.3575918 C48.8817846,22.3618776 48.9162462,22.363102 48.9519385,22.363102 C48.9944,22.363102 49.0356308,22.3606531 49.0768615,22.3563673 C49.5500923,22.2939184 49.9150154,21.892898 49.9150154,21.405551 C49.9150154,21.0412653 49.7113231,20.7253469 49.4116308,20.563102" id="Fill-14"></path>
                            <path d="M7.14541538,22.3630408 L7.14541538,22.3324286 C7.14541538,22.3379388 7.14418462,22.343449 7.14418462,22.3495714 C7.14418462,22.3532449 7.14541538,22.3593673 7.14541538,22.3630408" id="Fill-15"></path>
                            <path d="M12.9548923,1.50428571 C12.9518154,1.28816327 12.8755077,1.08795918 12.7505846,0.93 C12.5758154,0.706530612 12.3044308,0.565102041 11.9985846,0.565102041 C11.6958154,0.565102041 11.4287385,0.704081633 11.2521231,0.919591837 C11.1222769,1.08122449 11.0428923,1.28571429 11.0422769,1.50612245 L11.0422769,1.51653061 L11.0422769,1.52571429 L11.0422769,19.4730612 C11.0422769,20.0185714 10.5955077,20.46 10.0484308,20.46 C9.95489231,20.46 8.11366154,20.4581633 8.11366154,20.4581633 L8.09212308,20.4581633 C7.83427692,20.462449 7.60227692,20.5653061 7.4312,20.7318367 C7.25950769,20.9032653 7.14873846,21.1359184 7.14443077,21.3967347 L7.14443077,21.4279592 C7.15366154,21.9416327 7.57027692,22.3573469 8.08966154,22.3628571 L10.0484308,22.3628571 C11.6533538,22.3628571 12.9548923,21.0691837 12.9548923,19.4730612 L12.9548923,1.52877551 L12.9548923,1.51653061 L12.9548923,1.50428571 Z" id="Fill-16"></path>
                            <path d="M23.2764308,17.2863061 L23.2499692,17.1963061 L19.6038154,5.00467347 L19.5730462,4.90426531 C19.4425846,4.53814286 19.0912,4.27732653 18.6764308,4.27732653 C18.1527385,4.27732653 17.7256615,4.70038776 17.7256615,5.22385714 C17.7256615,5.29977551 17.7367385,5.37569388 17.7533538,5.44793878 L17.7828923,5.54406122 L21.4468923,17.6879388 L21.4985846,17.8599796 C21.6388923,18.1997755 21.9748923,18.4403878 22.3662769,18.4403878 C22.8838154,18.4403878 23.3041231,18.0222245 23.3041231,17.508551 C23.3041231,17.4320204 23.2948923,17.3573265 23.2764308,17.2863061" id="Fill-17"></path>
                            <path d="M5.06246154,4.27732653 C4.58676923,4.27732653 4.19415385,4.62018367 4.11661538,5.06957143 C4.11230769,5.09895918 4.10923077,5.12957143 4.10492308,5.15712245 C3.80646154,7.45855102 3.35784615,9.59957143 2.76707692,11.5232449 C2.17692308,13.4469184 1.48461538,15.2940612 0.710461538,17.0224286 C0.682769231,17.086102 0.652615385,17.1491633 0.624923077,17.2116122 C0.596,17.3016122 0.578769231,17.3989592 0.578769231,17.4987551 C0.578769231,18.0191633 1.00338462,18.4403878 1.52461538,18.4403878 C1.87846154,18.4403878 2.18492308,18.2481429 2.34676923,17.9628367 C2.36953846,17.9138571 2.39169231,17.8679388 2.41261538,17.8195714 C3.24153846,15.9981429 3.97138462,14.0616122 4.58246154,12.0565102 C5.19292308,10.0563061 5.66738462,7.83140816 6.00092308,5.43202041 C6.00707692,5.38793878 6.01323077,5.34202041 6.01938462,5.29732653 C6.02123077,5.27467347 6.02307692,5.25446939 6.02307692,5.23120408 C6.02307692,4.70467347 5.59230769,4.27732653 5.06246154,4.27732653" id="Fill-18"></path>
                        </g>
                    </g>
                </g>
            </g>
        </g>
    </g>
</svg>